<?xml version="1.0" standalone="no"?>
<!DOCTYPE svg PUBLIC "-//W3C//DTD SVG 1.1//EN" "http://www.w3.org/Graphics/SVG/1.1/DTD/svg11.dtd" >
<svg xmlns="http://www.w3.org/2000/svg">
<metadata></metadata>
<defs>
<font id="arvoitalic" horiz-adv-x="1235" >
<font-face units-per-em="2048" ascent="1638" descent="-410" />
<missing-glyph horiz-adv-x="449" />
<glyph horiz-adv-x="0" />
<glyph unicode="&#xd;" horiz-adv-x="0" />
<glyph unicode=" "  horiz-adv-x="449" />
<glyph unicode="&#x09;" horiz-adv-x="449" />
<glyph unicode="&#xa0;" horiz-adv-x="449" />
<glyph unicode="!" horiz-adv-x="842" d="M198 119q0 27 10.5 51t28.5 41.5t42 28t52 10.5q27 0 51 -10.5t41.5 -28t28 -41.5t10.5 -51t-10.5 -51.5t-28 -43t-41.5 -29.5t-51 -11q-28 0 -52 11t-42 29.5t-28.5 43t-10.5 51.5zM284 410l230 1167h260l-312 -1167h-178z" />
<glyph unicode="&#x22;" horiz-adv-x="745" d="M163 1059l71 510l183 12l-129 -522h-125zM450 1059l71 510l182 12l-129 -522h-124z" />
<glyph unicode="#" horiz-adv-x="1455" d="M34 389l92 172h221l193 451h-256l90 172h240l135 313h201l-134 -313h358l134 313h201l-134 -313h226l-90 -172h-209l-192 -451h243l-88 -172h-228l-165 -389h-203l166 389h-357l-165 -389h-207l167 389h-239zM551 561h357l193 451h-358z" />
<glyph unicode="$" horiz-adv-x="1278" d="M123 363q9 35 17.5 68.5t17.5 68.5h233q-4 -16 -8 -31t-7.5 -39.5t10 -50t41 -43t69.5 -26t96 -8.5q57 0 104 13t81.5 36.5t53.5 56t19 71.5q0 43 -29 70.5t-54 42t-64 22.5l-158 43q-53 14 -93.5 37t-69 54.5t-43 71.5t-14.5 87q0 77 32.5 139.5t93.5 107t148 68.5 q53 14 114 20l74 317h196l-75 -324q7 -2 40 -9.5t77.5 -32t74 -58t40.5 -73.5h82q-9 -35 -17.5 -68.5t-17.5 -68.5h-225q2 5 2.5 9.5t5.5 25.5t-6.5 48.5t-38.5 46.5t-66 29t-83 10q-61 0 -109.5 -12.5t-82.5 -34t-52.5 -52t-18.5 -66.5q0 -32 14.5 -52.5t37.5 -33.5 t50.5 -21t53.5 -16l153 -49q112 -35 168 -96t56 -157q0 -81 -35.5 -147t-99 -112.5t-132 -66t-121.5 -25.5l-77 -334h-197l77 335q-28 4 -72.5 15.5t-88 40.5t-67.5 68.5t-30 84.5h-80z" />
<glyph unicode="%" horiz-adv-x="1671" d="M20 -16l1401 1556h225l-1400 -1556h-226zM160 1108q0 79 32.5 150t89 124.5t132 85t161.5 31.5q62 0 114.5 -23t91 -61.5t60 -88t21.5 -103.5q0 -76 -31.5 -146.5t-87 -124.5t-132 -86t-165.5 -32q-64 0 -116.5 22.5t-90 60.5t-58.5 87.5t-21 103.5zM334 1137 q0 -31 9.5 -57t27.5 -45t43 -29.5t57 -10.5q40 0 79 16.5t69 44.5t48.5 65.5t18.5 78.5q0 29 -10 54t-27.5 43t-42.5 28t-55 10q-41 0 -80 -15.5t-69.5 -42.5t-49 -63t-18.5 -77zM844 239q0 65 15 114.5t42 92.5t65 79t84 62t99 40t110 14q62 0 114.5 -22.5t91 -61t60 -88 t21.5 -103.5q0 -76 -31.5 -146.5t-87 -125t-131.5 -87t-166 -32.5q-64 0 -116.5 23t-90 61.5t-58.5 87.5t-21 92zM1020 278q0 -62 36 -101.5t99 -39.5q40 0 79 16.5t69 44.5t48.5 65t18.5 79q0 29 -10 53.5t-27.5 42.5t-42.5 28.5t-55 10.5q-41 0 -79.5 -15.5t-68.5 -42.5 t-48.5 -63t-18.5 -78z" />
<glyph unicode="&#x26;" horiz-adv-x="1382" d="M75 356q0 83 32 155.5t84.5 131.5t120 104t138.5 74q-19 26 -41 56.5t-41 68t-32 83t-13 101.5q0 88 35.5 163.5t96 131t142.5 87.5t175 32q71 0 133 -26t108 -70.5t72.5 -102t26.5 -120.5q0 -69 -16 -122.5t-46.5 -97t-76 -80t-103.5 -73.5q-37 -25 -75.5 -46t-79.5 -41 l226 -288q48 75 83.5 147.5t58.5 131.5h180q-38 -101 -92 -207.5t-124 -205.5l194 -247l-166 -116l-154 213q-49 -50 -103 -91t-113 -70.5t-123.5 -46t-133.5 -16.5q-81 0 -149 30t-118 82.5t-78 123t-28 151.5zM249 362q0 -48 16 -89.5t45.5 -71.5t71 -47t91.5 -17 q51 0 98.5 14t91.5 38.5t84.5 58.5t76.5 74l-277 370q-23 -9 -45 -17.5t-44 -17.5q-43 -18 -81 -48.5t-66.5 -69.5t-45 -84.5t-16.5 -92.5zM493 1139q0 -34 8.5 -63.5t24.5 -58.5t39 -59.5t51 -66.5q61 26 117.5 56.5t105.5 72.5q38 34 67 80t29 100q0 37 -14 70t-38 58 t-57 39.5t-71 14.5q-55 0 -103 -19t-83 -52t-55.5 -77t-20.5 -95z" />
<glyph unicode="'" horiz-adv-x="414" d="M150 1059l71 510l183 12l-129 -522h-125z" />
<glyph unicode="(" horiz-adv-x="825" d="M239 397q0 203 44 387.5t130 352t199.5 310t267.5 270.5l124 -124q-139 -128 -238 -249.5t-172.5 -274.5t-112.5 -318t-39 -345q0 -92 9.5 -182.5t28.5 -175t48 -162t67 -144.5l-163 -111q-45 78 -81 169t-61 189t-38 201t-13 207z" />
<glyph unicode=")" horiz-adv-x="948" d="M-112 -251q135 125 243 264t184 288.5t117 308.5t41 328q0 92 -9.5 182t-29 175t-48.5 162.5t-67 144.5l163 110q46 -78 82 -168.5t60.5 -189t37.5 -201.5t13 -207q0 -195 -46 -370t-132 -339t-209 -313t-282 -293z" />
<glyph unicode="*" horiz-adv-x="829" d="M100 1260l66 122l225 -79l55 243h146l-57 -246l260 78l12 -137l-257 -76l101 -202l-125 -70l-98 202l-184 -194l-109 82l190 199z" />
<glyph unicode="+" horiz-adv-x="1270" d="M101 614l39 172h416l98 424h195l-98 -424h415l-39 -172h-416l-98 -428h-194l98 428h-416z" />
<glyph unicode="," horiz-adv-x="569" d="M-3 -273l208 556l219 -86l-256 -537z" />
<glyph unicode="-" horiz-adv-x="856" d="M137 496l40 172h571l-40 -172h-571z" />
<glyph unicode="." horiz-adv-x="514" d="M50 119q0 27 10.5 51t28.5 41.5t42 28t52 10.5q27 0 51 -10.5t41.5 -28t28 -41.5t10.5 -51t-10.5 -51.5t-28 -43t-41.5 -29.5t-51 -11q-28 0 -52 11t-42 29.5t-28.5 43t-10.5 51.5z" />
<glyph unicode="/" horiz-adv-x="1001" d="M-98 0l1137 1556h248l-1137 -1556h-248z" />
<glyph unicode="0" horiz-adv-x="1409" d="M143 492q0 110 23.5 231t69 237.5t112 221.5t152.5 184.5t191 126.5t227 47q120 0 205.5 -41.5t140 -112t79.5 -164t25 -198.5q0 -115 -24 -236.5t-70.5 -237.5t-113.5 -219t-153 -180.5t-190 -123t-223 -45.5q-118 0 -203.5 39t-140.5 107.5t-81 162t-26 201.5zM352 504 q0 -70 13.5 -131.5t44.5 -107.5t81.5 -72.5t124.5 -26.5q78 0 148.5 39.5t131 106t109 153t83 180t53 187.5t18.5 176q0 71 -13.5 135.5t-44 113t-81 77t-125.5 28.5q-77 0 -147.5 -41.5t-130.5 -111t-109 -158.5t-83.5 -184.5t-53.5 -189.5t-19 -173z" />
<glyph unicode="1" horiz-adv-x="844" d="M143 0l39 172h147l254 1109l-343 -167l47 209l477 236h80l-320 -1387h150l-39 -172h-492z" />
<glyph unicode="2" horiz-adv-x="1143" d="M-20 0l34 154l680 639q39 37 83 78t81 87t61.5 95.5t24.5 103.5q0 41 -15 76.5t-42.5 62t-67 41.5t-88.5 15q-51 0 -98.5 -16.5t-87 -48t-69.5 -78t-46 -107.5h-207q24 103 76.5 185t124.5 138.5t159 86.5t179 30q85 0 155 -28.5t120.5 -77.5t78 -114.5t27.5 -139.5 q0 -59 -10.5 -109t-38 -101t-76.5 -108.5t-127 -130.5l-601 -561h621l-39 -172h-892z" />
<glyph unicode="3" horiz-adv-x="1124" d="M23 371h200q1 -48 17.5 -89.5t47.5 -73t75.5 -49.5t101.5 -18q74 0 136.5 28t107.5 76.5t70.5 113t25.5 137.5q0 49 -17 89.5t-47 69t-71.5 44.5t-91.5 16h-89l35 157h74q75 0 137.5 23t107.5 61.5t70 89t25 105.5q0 43 -16.5 83.5t-46 71.5t-71 49.5t-91.5 18.5 q-62 0 -110 -16t-83.5 -43t-58.5 -61.5t-35 -71.5q-2 -5 -2.5 -7.5t-1.5 -5.5t-2.5 -8t-3.5 -14l-201 2q15 91 61 164.5t114 125.5t155.5 79.5t185.5 27.5q88 0 163.5 -25.5t131 -73t87.5 -114.5t32 -151q0 -61 -15.5 -119.5t-50 -110t-89.5 -93t-133 -69.5 q33 -16 61.5 -42.5t49.5 -62.5t32.5 -79t11.5 -92q0 -117 -43 -216.5t-119.5 -172.5t-181 -114.5t-228.5 -41.5q-71 0 -138.5 20.5t-123 58t-94 91t-51.5 119.5q-6 26 -9 54t-1 59z" />
<glyph unicode="4" horiz-adv-x="1153" d="M20 438l39 158l752 920h231l-744 -906h392l58 250l200 14l-61 -264h225l-41 -172h-224l-62 -266h145l-39 -172h-492l39 172h150l62 266h-630z" />
<glyph unicode="5" horiz-adv-x="1192" d="M20 297l183 78q11 -45 34.5 -86t60.5 -72.5t87 -50.5t115 -19q70 0 139 26t124 75.5t89.5 122.5t34.5 168q0 56 -19 104t-54 83.5t-84 56t-109 20.5q-81 0 -154 -28t-129 -75l-154 29l185 787h864l-41 -173h-676l-101 -433q56 31 113.5 47t130.5 16q91 0 170 -30 t137 -85.5t91 -133.5t33 -173q0 -96 -24.5 -176t-67 -145t-101 -113.5t-126 -81.5t-141.5 -49.5t-149 -16.5q-93 0 -171 25t-137.5 69t-98.5 104t-54 130z" />
<glyph unicode="6" horiz-adv-x="1229" d="M102 416q0 55 12 111.5t38.5 118t69 129t104.5 144.5l479 597h244l-445 -539q38 11 66 14t50 3q96 0 177 -33t140 -90.5t92 -135.5t33 -168q0 -131 -50.5 -237.5t-134 -182t-192.5 -116.5t-226 -41q-105 0 -189.5 34t-144 92.5t-91.5 135.5t-32 164zM302 426 q0 -57 19 -106t55 -85t87.5 -56.5t117.5 -20.5q74 0 142.5 28.5t121.5 81t85 127.5t32 167q0 64 -23 115.5t-62 87.5t-90 55t-106 19q-100 0 -181 -47.5t-127 -116.5t-58.5 -128t-12.5 -121z" />
<glyph unicode="7" horiz-adv-x="1212" d="M61 0l39 172h138q92 158 196.5 320t208.5 315t201.5 290t176.5 246h-573l-32 -137h-195l72 310h1001l-34 -150q-97 -130 -202.5 -275.5t-212 -298.5t-208.5 -310t-191 -310h146l-39 -172h-492z" />
<glyph unicode="8" horiz-adv-x="1247" d="M102 383q0 77 25 147.5t69.5 130.5t105.5 107.5t134 78.5q-50 48 -78 111.5t-28 133.5q0 93 42 175.5t112.5 144t164 97t195.5 35.5q78 0 144.5 -26.5t115 -73.5t75.5 -110.5t27 -137.5q0 -62 -19 -119t-53 -106.5t-80.5 -90.5t-101.5 -71q70 -55 111 -134t41 -169 q0 -108 -44 -203.5t-122 -166t-185.5 -111.5t-234.5 -41q-98 0 -175 32t-130.5 87t-82 127t-28.5 153zM297 399q0 -53 16.5 -96.5t48 -74t77 -47.5t102.5 -17q85 0 153.5 27.5t116.5 74t74 106t26 124.5q0 48 -17.5 90.5t-49.5 73.5t-76 49t-98 18q-75 0 -143 -26.5 t-119 -71.5t-81 -104.5t-30 -125.5zM512 1098q0 -41 14.5 -76.5t41 -62t64 -41.5t83.5 -15q57 0 112 22t98.5 60t70 88.5t26.5 106.5q0 43 -14 79t-39.5 62t-62.5 40.5t-83 14.5q-62 0 -118 -23t-99 -61t-68.5 -88.5t-25.5 -105.5z" />
<glyph unicode="9" horiz-adv-x="1294" d="M184 953q0 131 50.5 237.5t134 182t192.5 116.5t226 41q105 0 189.5 -34t144 -92.5t91.5 -135.5t32 -164q0 -55 -12 -111.5t-38.5 -118t-69.5 -129t-104 -144.5l-481 -601h-244l447 543q-38 -12 -66.5 -14.5t-49.5 -2.5q-96 0 -177 33t-140 90.5t-92 135.5t-33 168z M384 958q0 -65 23 -116t62 -87t90 -55t106 -19q121 0 208 60t146 188q14 40 19.5 81t5.5 84q0 57 -19 106t-55 85t-87.5 56.5t-117.5 20.5q-74 0 -142.5 -28.5t-121.5 -81t-85 -127.5t-32 -167z" />
<glyph unicode=":" horiz-adv-x="543" d="M93 -2881q0 26 10.5 49.5t28 41t41.5 28t51 10.5q26 0 49.5 -10.5t41 -28t28 -41t10.5 -49.5q0 -27 -10.5 -51t-28 -42.5t-41 -29t-49.5 -10.5q-27 0 -51 10.5t-41.5 29t-28 42.5t-10.5 51zM256 -2095q0 26 10.5 49.5t28 41t41.5 28t51 10.5q26 0 49.5 -10.5t41 -28 t28 -41t10.5 -49.5q0 -27 -10.5 -51t-28 -42.5t-41 -29t-49.5 -10.5q-27 0 -51 10.5t-41.5 29t-28 42.5t-10.5 51z" />
<glyph unicode=";" horiz-adv-x="555" d="M-104 -273l208 556l219 -86l-256 -537zM242 -2095q0 26 10.5 49.5t28 41t41.5 28t51 10.5q26 0 49.5 -10.5t41 -28t28 -41t10.5 -49.5q0 -27 -10.5 -51t-28 -42.5t-41 -29t-49.5 -10.5q-27 0 -51 10.5t-41.5 29t-28 42.5t-10.5 51z" />
<glyph unicode="&#x3c;" horiz-adv-x="1067" d="M-7 508l33 145l850 295l-45 -186l-611 -192l521 -203l-37 -164z" />
<glyph unicode="=" horiz-adv-x="1053" d="M130 336l39 172h750l-39 -172h-750zM214 705l39 172h750l-39 -172h-750z" />
<glyph unicode="&#x3e;" horiz-adv-x="1067" d="M-68 203l45 186l611 192l-521 203l37 164l711 -305l-33 -145z" />
<glyph unicode="?" horiz-adv-x="1128" d="M198 1155q23 94 70 170.5t113 130.5t149.5 83.5t179.5 29.5q95 0 168 -29.5t122.5 -77.5t75 -109t25.5 -124q0 -72 -19 -130t-55 -107.5t-89.5 -93t-122.5 -85.5q-49 -29 -87 -51t-68.5 -44.5t-53.5 -47.5t-42 -60t-35 -82.5t-32 -113.5h-198q14 69 28.5 122.5t32.5 95.5 t40 75t51.5 62.5t67.5 57.5t87 60q70 45 123.5 80t89 69.5t53.5 74t18 93.5q0 36 -14 67.5t-40.5 55.5t-64 37.5t-85.5 13.5q-56 0 -105.5 -18t-91 -59t-63 -88t-21.5 -76zM235 125q0 27 10.5 51t28.5 41.5t42 28t52 10.5q27 0 51 -10.5t41.5 -28t28 -41.5t10.5 -51 t-10.5 -51.5t-28 -43t-41.5 -29.5t-51 -11q-28 0 -52 11t-42 29.5t-28.5 43t-10.5 51.5z" />
<glyph unicode="@" horiz-adv-x="2351" d="M98 328q0 167 47 318.5t130.5 280.5t199 233.5t252 178t289 113t311.5 39.5q128 0 240.5 -29t206.5 -81.5t167.5 -126.5t124.5 -163t77.5 -190.5t26.5 -210.5q0 -90 -19 -177.5t-54.5 -166t-87 -145t-116.5 -115t-142.5 -75.5t-165.5 -27q-97 0 -153 37t-79 99 q-72 -53 -157 -82.5t-177 -29.5q-89 0 -162 32.5t-124.5 87.5t-80 127.5t-28.5 152.5q0 77 22.5 147.5t63 130.5t96 109t121.5 83.5t139.5 53t149.5 18.5q77 0 143 -22t117 -63l21 91h184l-154 -663q-10 -51 -1.5 -81t28.5 -46t53 -16q84 0 151.5 45.5t115.5 119.5t74 168 t26 191q0 138 -47 254t-133.5 200.5t-208 131.5t-269.5 47q-130 0 -256 -33.5t-239.5 -95.5t-209.5 -149.5t-166 -195t-109.5 -232t-39.5 -261.5q0 -139 46 -260t130.5 -210t204 -140.5t265.5 -51.5q115 0 229 30.5t219 86.5l57 -157q-128 -69 -257 -106.5t-271 -37.5 q-119 0 -226 30t-198 85t-164.5 131.5t-125 169t-79.5 198.5t-28 220zM819 424q0 -48 16 -90.5t46 -73.5t74 -49t101 -18q47 0 90.5 12t81.5 33t70.5 50t57.5 64l64 272q-21 66 -82 106t-151 40q-72 0 -138.5 -29t-117.5 -77t-81.5 -110.5t-30.5 -129.5z" />
<glyph unicode="A" horiz-adv-x="1458" d="M-150 0l39 172h131l760 1344h323l158 -1344h150l-39 -172h-492l39 172h127l-37 342h-574l-191 -342h136l-38 -172h-492zM531 686h459l-75 688z" />
<glyph unicode="B" horiz-adv-x="1500" d="M75 0l39 172h134l270 1171h-148l41 173h678q85 0 151.5 -27t112 -75.5t69 -115.5t23.5 -147q0 -143 -72 -245t-204 -153q66 -48 101.5 -122t35.5 -166q0 -105 -42.5 -191t-116 -147t-172.5 -94t-212 -33h-688zM457 172h335q67 0 122 21.5t94 58.5t60 87.5t21 109.5 q0 51 -13 92.5t-36.5 71t-57 45.5t-73.5 16h-337zM612 848h330q60 0 112 19.5t90.5 55.5t61 86t22.5 111q0 47 -11 87.5t-33.5 70.5t-56.5 47.5t-79 17.5h-323z" />
<glyph unicode="C" horiz-adv-x="1468" d="M75 655q0 125 29.5 240t83.5 213.5t131 179t172.5 137.5t207 88t234.5 31q170 0 302.5 -68.5t217.5 -189.5h156l-41 -172h-276q-22 51 -58.5 94t-85 73.5t-108.5 47.5t-129 17q-132 0 -244 -53.5t-194 -145.5t-128 -214.5t-46 -260.5q0 -115 36 -207.5t96 -157t139 -99 t165 -34.5q151 0 265.5 62.5t201.5 187.5l192 -102q-58 -82 -129 -146.5t-156 -109t-184 -68t-213 -23.5q-137 0 -253.5 51.5t-201.5 142.5t-133.5 215.5t-48.5 270.5z" />
<glyph unicode="D" horiz-adv-x="1561" d="M75 0l39 172h132l270 1171h-131l40 173h549q133 0 240.5 -50.5t183 -138t116 -204.5t40.5 -249q0 -131 -31.5 -246.5t-89 -213t-139.5 -174t-182 -130t-216 -82t-243 -28.5h-578zM455 172h220q83 0 164 22t154.5 64t136 102t108 136t71.5 167t26 195q0 97 -27.5 184.5 t-78 154.5t-122 106.5t-159.5 39.5h-225z" />
<glyph unicode="E" horiz-adv-x="1415" d="M75 0l39 172h134l270 1171h-148l41 173h1100l-100 -433h-207l61 260h-540l-111 -485h446l-43 -172h-442l-118 -514h534l61 262h209l-100 -434h-1086z" />
<glyph unicode="F" horiz-adv-x="1331" d="M75 0l39 172h130l270 1171h-148l41 173h1102l-98 -429h-197l57 256h-550l-111 -487h522l-39 -172h-523l-117 -512h153l-39 -172h-492z" />
<glyph unicode="G" horiz-adv-x="1616" d="M75 655q0 124 29 238t83 213t130.5 179.5t172 138t207.5 89t236 31.5q95 0 176 -22t147 -58t115.5 -82.5t81.5 -95.5h156l-41 -172h-276q-22 51 -58.5 94t-85 73.5t-108.5 47.5t-129 17q-90 0 -170 -24t-148 -68.5t-122.5 -106t-92.5 -136.5t-58.5 -161t-20.5 -178 q0 -109 34.5 -200.5t93.5 -157.5t138.5 -103t169.5 -37q91 0 171.5 25.5t147 74t118.5 118t86 157.5h-423l41 176h643l-164 -725h-200l50 222q-92 -126 -218.5 -186.5t-274.5 -60.5q-137 0 -254 52.5t-202 144.5t-133 216t-48 267z" />
<glyph unicode="H" horiz-adv-x="1933" d="M75 0l39 172h134l270 1171h-148l41 173h492l-41 -173h-137l-105 -458h858l105 458h-148l41 173h492l-41 -173h-137l-268 -1171h149l-39 -172h-492l39 172h134l126 545h-857l-125 -545h149l-39 -172h-492z" />
<glyph unicode="I" horiz-adv-x="883" d="M75 0l39 172h144l270 1171h-143l40 173h492l-41 -173h-141l-268 -1171h139l-39 -172h-492z" />
<glyph unicode="J" horiz-adv-x="762" d="M-75 -223q80 90 140 168.5t109.5 150t61.5 109.5l263 1138h-150l41 173h491l-41 -173h-141l-271 -1171q-14 -42 -61 -103.5t-117 -142t-157 -164.5z" />
<glyph unicode="K" horiz-adv-x="1642" d="M75 0l39 172h134l270 1171h-148l41 173h492l-41 -173h-137l-268 -1171h149l-39 -172h-492zM598 774l792 569l41 173h389l-41 -173h-94l-837 -589l468 -582h158l-39 -172h-407l39 172z" />
<glyph unicode="L" horiz-adv-x="1376" d="M75 0l39 172h134l270 1171h-148l41 173h492l-41 -173h-137l-268 -1171h505q43 0 66.5 23t31.5 57l47 197h201l-104 -449h-1129z" />
<glyph unicode="M" horiz-adv-x="2290" d="M75 0l39 172h136l270 1171h-150l41 173h459l197 -1301l784 1301h473l-41 -173h-137l-270 -1171h159l-39 -172h-491l39 172h132l266 1154l-800 -1326h-231l-202 1323l-266 -1151h163l-39 -172h-492z" />
<glyph unicode="N" horiz-adv-x="1786" d="M75 0l39 172h133l271 1171h-150l41 173h416l408 -1246l246 1073h-148l39 173h491l-39 -173h-136l-308 -1343h-262l-413 1255l-249 -1083h152l-39 -172h-492z" />
<glyph unicode="O" horiz-adv-x="1577" d="M75 655q0 131 31 247.5t87 215.5t134.5 178t174 134t204.5 84.5t227 29.5q128 0 243.5 -44.5t203 -129.5t139 -208.5t51.5 -280.5q0 -134 -30 -254t-84.5 -221t-132 -182t-173 -137.5t-206.5 -87t-232 -30.5q-128 0 -243.5 49t-203 138.5t-139 216t-51.5 282.5zM299 672 q0 -107 32.5 -198.5t90.5 -158.5t138 -105t175 -38q86 0 165 24t147 68.5t123.5 107t94.5 139.5t60.5 166t21.5 187q0 109 -32.5 197t-90.5 150.5t-138 96t-175 33.5q-124 0 -235 -50t-195 -139.5t-133 -212t-49 -267.5z" />
<glyph unicode="P" horiz-adv-x="1313" d="M75 0l39 172h132l270 1171h-148l41 173h608q87 0 159 -30t124 -81.5t80.5 -120.5t28.5 -147q0 -103 -39 -191t-114.5 -152t-187 -100.5t-255.5 -36.5h-247l-111 -485h151l-39 -172h-492zM606 829h229q81 0 148 19.5t115 57t74 92.5t26 126q0 42 -14 81.5t-43 70t-74 49 t-107 18.5h-237z" />
<glyph unicode="Q" horiz-adv-x="1559" d="M75 655q0 131 31 247.5t87 215.5t134.5 178t174 134t204.5 84.5t227 29.5q128 0 243.5 -44.5t203 -129.5t139 -208.5t51.5 -280.5q0 -128 -27 -242t-77 -212.5t-120.5 -178.5t-158 -138.5t-189.5 -93.5t-214 -44q42 -13 75.5 -33.5t66.5 -39.5t70 -32.5t87 -13.5 q57 0 108.5 28.5t79.5 87.5l135 -69q-25 -56 -67 -98.5t-92.5 -71t-103.5 -42.5t-101 -14q-50 0 -90.5 11.5t-76 28.5t-67.5 36t-63.5 33.5t-64.5 22.5q-18 4 -37 4q-16 0 -33 -3q-31 -3 -51 -10l42 182q-110 19 -205.5 75t-167 143.5t-112.5 203t-41 254.5zM299 672 q0 -107 32.5 -198.5t90.5 -158.5t138 -105t175 -38q86 0 165 24t147 68.5t123.5 107t94.5 139.5t60.5 166t21.5 187q0 109 -32.5 197t-90.5 150.5t-138 96t-175 33.5q-124 0 -235 -50t-195 -139.5t-133 -212t-49 -267.5z" />
<glyph unicode="R" horiz-adv-x="1438" d="M75 0l39 172h134l270 1171h-150l41 173h617q87 0 158 -26t121.5 -73t78 -112.5t27.5 -143.5q0 -81 -27.5 -149.5t-74 -122t-108 -92t-129.5 -60.5q39 -28 66 -84t29 -133l6 -348h129l-39 -172h-293l-6 461q-2 125 -57 183t-166 58h-163l-121 -530h149l-39 -172h-492z M617 870h237q75 0 138.5 17t109.5 52t72 88t26 124q0 42 -14 77.5t-43.5 61t-75 39.5t-107.5 14h-235z" />
<glyph unicode="S" horiz-adv-x="1278" d="M15 281l39 159h272l-18 -74q-2 -17 -2 -32q0 -84 65 -129q77 -53 223 -53q75 0 138 21t108.5 58.5t71.5 90t26 114.5q0 48 -17 83t-46.5 60.5t-69 44t-84.5 33.5l-174 56q-136 43 -206 128t-70 218q0 102 39 189.5t113.5 152t181 101t241.5 36.5q85 0 156 -19t125.5 -53 t92 -82t54.5 -106h101l-39 -160h-260l4 19q5 22 5 43q1 28 -9 51q-16 41 -52.5 69.5t-87.5 43t-108 14.5q-83 0 -148.5 -22t-110.5 -60t-69 -88.5t-24 -106.5q0 -50 19 -81t48 -51t64.5 -32t68.5 -24l187 -68q72 -24 126 -57t90 -76.5t54 -99t18 -125.5q0 -111 -43 -203 t-120.5 -157.5t-186.5 -101.5t-241 -36q-119 0 -201.5 25.5t-135.5 69t-79.5 99.5t-33.5 118h-95z" />
<glyph unicode="T" horiz-adv-x="1362" d="M135 1116l92 400h1352l-93 -400h-204l53 236h-368l-270 -1180h142l-39 -172h-491l39 172h140l272 1180h-367l-53 -236h-205z" />
<glyph unicode="U" horiz-adv-x="1581" d="M202 455q0 45 6 89.5t17 94.5l162 704h-144l39 173h492l-39 -173h-140l-161 -704q-8 -35 -14.5 -74.5t-6.5 -89.5v-6q0 -53 17 -103q18 -54 56 -96t97 -68t141 -26q83 0 153.5 23.5t127.5 78t100.5 143t73.5 218.5l162 704h-152l39 173h492l-39 -173h-133l-166 -722 q-39 -171 -103.5 -293.5t-150.5 -201t-192 -115t-230 -36.5q-109 0 -202.5 32.5t-161.5 94.5q-66 61 -104 150q-36 84 -36 192v11z" />
<glyph unicode="V" horiz-adv-x="1470" d="M175 1343l39 173h491l-39 -173h-140l99 -1169l645 1169h-135l39 173h492l-39 -173h-133l-746 -1343h-305l-129 1343h-139z" />
<glyph unicode="W" horiz-adv-x="2271" d="M175 1343l39 173h491l-39 -173h-132l69 -1148l659 1321h213l49 -1321l605 1148h-152l39 173h491l-39 -173h-138l-703 -1343h-285l-53 1171l-586 -1171h-285l-89 1343h-154z" />
<glyph unicode="X" horiz-adv-x="1487" d="M-65 0l39 172h121l590 621l-268 550h-146l41 173h491l-41 -173h-130l193 -402l382 402h-133l41 173h491l-41 -173h-104l-551 -579l284 -592h150l-39 -172h-491l38 172h137l-218 446l-424 -446h118l-39 -172h-491z" />
<glyph unicode="Y" horiz-adv-x="1323" d="M175 1343l39 173h491l-39 -173h-122l175 -473l411 473h-122l39 173h492l-39 -173h-123l-586 -656l-120 -515h141l-39 -172h-492l39 172h141l120 519l-259 652h-147z" />
<glyph unicode="Z" horiz-adv-x="1298" d="M-25 0l51 231l1135 1108h-660l-59 -258h-207l100 435h1102l-47 -218l-1152 -1120h681l57 252h207l-98 -430h-1110z" />
<glyph unicode="[" horiz-adv-x="762" d="M22 -213l444 1933h424l-34 -151h-220l-374 -1630h219l-35 -152h-424z" />
<glyph unicode="\" horiz-adv-x="700" d="M101 1581h162l334 -1606h-162z" />
<glyph unicode="]" horiz-adv-x="762" d="M-75 -213l35 152h219l375 1630h-220l35 151h424l-444 -1933h-424z" />
<glyph unicode="^" horiz-adv-x="1229" d="M81 725l589 791h111l225 -791h-139l-167 627l-466 -627h-153z" />
<glyph unicode="_" horiz-adv-x="1049" d="M-117 -256l24 102h1024l-24 -102h-1024z" />
<glyph unicode="`" horiz-adv-x="590" d="M100 1460v17h248l184 -299h-145z" />
<glyph unicode="a" horiz-adv-x="1307" d="M92 406q0 145 51 266t138.5 208t204 135t247.5 48q75 0 141 -22.5t108 -58.5l13 54h201l-200 -864h161l-39 -172h-363l16 70q-67 -45 -134.5 -66.5t-139.5 -21.5q-85 0 -159 33t-128.5 90t-86 134.5t-31.5 166.5zM299 426q0 -64 18 -114.5t50 -85.5t77.5 -53.5 t99.5 -18.5q37 0 75.5 9t73.5 23t66 32.5t55 38.5l129 554q-26 33 -81 56.5t-144 23.5q-77 0 -152 -31.5t-134 -91t-96 -146t-37 -196.5z" />
<glyph unicode="b" horiz-adv-x="1272" d="M85 0l318 1384h-192l41 172h392l-135 -585q134 92 278 92q85 0 159 -33t128.5 -90t86 -134.5t31.5 -166.5q0 -97 -23 -183t-65 -159t-101 -131.5t-130 -99t-152.5 -62.5t-169.5 -22q-77 0 -143 23t-108 59l-15 -64h-200zM339 235q26 -33 81.5 -57t145.5 -24 q77 0 152 31.5t134.5 91t96.5 145.5t37 196q0 64 -18 114.5t-50.5 85.5t-78 54t-99.5 19q-71 0 -142.5 -28.5t-131.5 -78.5z" />
<glyph unicode="c" horiz-adv-x="1135" d="M95 449q0 136 51 249.5t134 195.5t187.5 127.5t211.5 45.5q50 0 100 -9.5t96 -30t86 -51.5t72 -73h125l-28 -172h-209q-16 40 -42.5 70t-60.5 50t-74 30t-83 10q-55 0 -117.5 -28.5t-116 -83.5t-88.5 -135t-35 -183q0 -75 22 -132.5t59 -96.5t86 -58.5t104 -19.5 q40 0 75 6.5t66.5 22t61.5 40.5t59 62l145 -109q-39 -55 -88 -93.5t-103 -62.5t-111.5 -34.5t-113.5 -10.5q-102 0 -188.5 36.5t-149 100.5t-98 150.5t-35.5 186.5z" />
<glyph unicode="d" horiz-adv-x="1285" d="M75 426q0 138 49 255t133.5 203t197 134.5t240.5 48.5q80 0 149 -23t120 -63l93 403h-175l41 172h374l-319 -1384h172l-39 -172h-373l15 67q-57 -39 -119.5 -63t-134.5 -24q-89 0 -166 34t-134.5 94t-90.5 141.5t-33 176.5zM282 444q0 -67 19.5 -120.5t54.5 -91t83.5 -58 t106.5 -20.5q63 0 130.5 28t122.5 82l124 537q-37 43 -96 66.5t-144 23.5q-75 0 -147.5 -31.5t-128.5 -89.5t-90.5 -141t-34.5 -185z" />
<glyph unicode="e" horiz-adv-x="1171" d="M115 444q0 129 45.5 242.5t126 198t190.5 133.5t238 49q99 0 176.5 -33.5t131.5 -88.5t82 -127t28 -148q0 -51 -5.5 -98.5t-13.5 -88.5h-796q-1 -14 -2 -24t-1 -19q0 -63 20.5 -117t57 -93.5t87 -62t110.5 -22.5q80 0 152.5 32.5t121.5 94.5l148 -108q-34 -45 -81 -81 t-104 -61.5t-121.5 -39t-131.5 -13.5q-96 0 -179.5 32t-146 93t-98 149.5t-35.5 200.5zM350 645h590v7q0 58 -16 102q-18 48 -51.5 79.5t-80.5 47.5t-104 16q-60 0 -112.5 -19t-95.5 -53t-76 -80t-54 -100z" />
<glyph unicode="f" horiz-adv-x="811" d="M35 -471l305 1335h-213l41 172h212l42 183q22 96 62 164t94.5 111t122.5 63t147 20q48 0 88.5 -6t73.5 -15t59 -19.5t44 -20.5l-103 -154q-26 17 -71.5 30t-98.5 13q-80 0 -136 -44.5t-81 -152.5l-40 -172h282l-41 -172h-280l-306 -1335h-203z" />
<glyph unicode="g" horiz-adv-x="1249" d="M-37 -322l129 146q24 -26 58 -47.5t75 -37.5t86.5 -25t92.5 -9q72 0 131 15.5t105.5 54t81 104t61.5 185.5q-63 -44 -129.5 -63t-143.5 -19q-85 0 -159 33t-128.5 90t-86 134.5t-31.5 166.5q0 145 51 266t138.5 208t204 135t247.5 48q75 0 141 -22.5t108 -58.5l13 54h203 l-238 -1024q-30 -130 -80 -221.5t-122 -149.5t-167.5 -85t-216.5 -27q-55 0 -114 9t-115.5 27.5t-106.5 46.5t-88 66zM312 426q0 -64 18 -114.5t50 -85.5t77.5 -53.5t99.5 -18.5q78 0 146 28t125 76l128 552q-26 33 -81 57t-144 24q-77 0 -152 -31.5t-134 -91t-96 -146 t-37 -196.5z" />
<glyph unicode="h" horiz-adv-x="1307" d="M105 0l318 1384h-200l41 172h402l-145 -626q73 57 156 91t171 34q80 0 144.5 -24t105 -73t54.5 -122q5 -28 5 -59q0 -51 -14 -111l-114 -494h147l-39 -172h-350l149 641q11 44 11 81q1 60 -29 97q-46 60 -156 60q-67 0 -139 -29t-138 -77l-178 -773h-202z" />
<glyph unicode="i" horiz-adv-x="725" d="M145 0l200 864h-186l41 172h387l-200 -864h166l-39 -172h-369zM391 1401q0 27 10.5 51t28.5 41.5t42 28t52 10.5q27 0 51 -10.5t41.5 -28t28 -41.5t10.5 -51t-10.5 -51.5t-28 -43t-41.5 -29.5t-51 -11q-28 0 -52 11t-42 29.5t-28.5 43t-10.5 51.5z" />
<glyph unicode="j" horiz-adv-x="668" d="M-110 -471l16 145q90 13 146 83t82 186l214 921h-204l41 172h405l-258 -1112q-21 -91 -61 -163.5t-97 -123t-128.5 -78.5t-155.5 -30zM396 1401q0 27 10.5 51t28.5 41.5t42 28t52 10.5q27 0 51 -10.5t41.5 -28t28 -41.5t10.5 -51t-10.5 -51.5t-28 -43t-41.5 -29.5 t-51 -11q-28 0 -52 11t-42 29.5t-28.5 43t-10.5 51.5z" />
<glyph unicode="k" d="M105 0l318 1384h-185l41 172h387l-223 -964h112l340 288l37 156h336l-41 -172h-107l-389 -329l250 -365h125l-39 -170h-219l-311 469h-122l-108 -469h-202z" />
<glyph unicode="l" horiz-adv-x="653" d="M105 0l318 1384h-200l41 172h402l-320 -1384h172l-39 -172h-374z" />
<glyph unicode="m" horiz-adv-x="2100" d="M145 0l200 864h-194l41 172h387l-25 -106q71 59 155.5 92t178.5 33q106 0 183 -43t109 -130q37 38 81 69.5t93.5 54.5t104 36t111.5 13q80 0 144.5 -24t105.5 -73t54 -122q5 -27 5 -58q0 -51 -14 -112l-114 -494h149l-39 -172h-352l149 641q11 45 11 81q0 60 -29 97 q-46 60 -156 60q-78 0 -148 -33.5t-133 -92.5l-173 -753h-203l149 641q11 45 11 81q0 60 -29 97q-46 60 -156 60q-78 0 -148 -33.5t-133 -93.5l-173 -752h-203z" />
<glyph unicode="n" horiz-adv-x="1368" d="M145 0l200 864h-198l41 172h391l-25 -106q71 59 155.5 92t178.5 33q80 0 144.5 -24t105.5 -73t54 -122q5 -27 5 -58q0 -51 -14 -112l-114 -494h147l-39 -172h-350l149 641q11 45 11 81q0 60 -29 97q-46 60 -156 60q-78 0 -148 -33.5t-133 -93.5l-173 -752h-203z" />
<glyph unicode="o" d="M75 449q0 86 21.5 165t61 148t95 125t122.5 96t143.5 62t158.5 22q103 0 191 -36.5t152 -100t100.5 -149t36.5 -183.5q0 -87 -22 -167t-61.5 -149t-94.5 -126t-122.5 -97t-144.5 -62t-160 -22q-104 0 -191 36.5t-151 100.5t-99.5 150.5t-35.5 186.5zM284 463 q0 -70 20.5 -127.5t57.5 -98t89 -63t114 -22.5q73 0 142.5 32t122.5 89t85.5 137t32.5 176q0 70 -21.5 126t-59.5 96t-89.5 61.5t-112.5 21.5q-74 0 -142.5 -31.5t-121.5 -88t-85 -135.5t-32 -173z" />
<glyph unicode="p" horiz-adv-x="1333" d="M35 -471l311 1335h-198l41 172h393l-14 -68q69 48 138 71.5t144 23.5q85 0 159.5 -33t129 -90t86 -134.5t31.5 -166.5q0 -145 -51 -266t-138.5 -208t-204 -135t-247.5 -48q-76 0 -142.5 22.5t-109.5 58.5l-83 -362h171l-39 -172h-377zM403 236q26 -33 80.5 -57.5 t145.5 -24.5q77 0 152 31.5t134.5 91t96.5 145.5t37 196q0 64 -18 114.5t-50.5 85.5t-77.5 54t-100 19q-70 0 -141.5 -28.5t-131.5 -77.5z" />
<glyph unicode="q" horiz-adv-x="1246" d="M75 406q0 145 51 266t138.5 208t204 135t247.5 48q75 0 140.5 -22.5t108.5 -57.5l15 53h197l-309 -1335h182l-39 -172h-381l124 541q-67 -45 -134.5 -66.5t-139.5 -21.5q-85 0 -159 33t-128.5 90t-86 134.5t-31.5 166.5zM282 426q0 -64 18 -114.5t50 -85.5t77.5 -53.5 t99.5 -18.5q69 0 140 27.5t130 75.5l127 555q-26 32 -80.5 55.5t-142.5 23.5q-77 0 -152 -31.5t-134 -91t-96 -146t-37 -196.5z" />
<glyph unicode="r" horiz-adv-x="1053" d="M145 0l200 864h-198l41 172h391l-33 -142q28 32 60 59.5t67.5 47.5t74 31.5t77.5 11.5q36 0 62 -1t55.5 -3.5t81.5 -9.5l-66 -280h-203l29 122q-97 0 -165 -49.5t-112 -130.5l-120 -520h172l-39 -172h-375z" />
<glyph unicode="s" horiz-adv-x="1012" d="M-15 115l41 172h211q-1 -10 -1 -19q0 -28 11 -50q15 -30 43 -50.5t66.5 -30.5t81.5 -10t80.5 11t65.5 32t44.5 52t16.5 71q0 38 -27 69.5t-84 51.5l-184 67q-89 35 -137 102.5t-48 151.5q0 74 26 135t77 105t128 68t179 24q59 0 109 -11.5t89 -31.5t67 -46.5t45 -57.5 h112l-41 -172h-207q-1 39 -15.5 69t-40 50.5t-60 31t-74.5 10.5t-76 -9.5t-63 -28.5t-42.5 -46t-15.5 -61q0 -40 25.5 -66.5t80.5 -48.5l193 -69q88 -32 134 -99.5t46 -163.5q0 -86 -31.5 -151t-87.5 -109t-133.5 -66t-169.5 -22q-56 0 -107 9t-94.5 27.5t-76 46t-50.5 63.5 h-106z" />
<glyph unicode="t" horiz-adv-x="778" d="M145 864l41 172h173l61 248l211 86l-79 -334h218l-41 -172h-218l-132 -559q-5 -20 -9.5 -40.5t-4.5 -43.5q0 -45 24.5 -63.5t77.5 -18.5q57 0 137 33l17 -143q-53 -25 -102 -39.5t-109 -14.5q-63 0 -115 15.5t-86 51.5q-34 34 -45 92q-4 21 -4 46q0 43 12 96l144 588 h-171z" />
<glyph unicode="u" horiz-adv-x="1290" d="M135 864l41 172h340l-123 -526q-23 -97 -23 -167q0 -64 20 -106q40 -87 171 -87q58 0 102.5 19.5t81 54.5t61.5 74l132 566h-136l41 172h336l-200 -864h155l-39 -172h-348l24 105q-32 -33 -69 -56.5t-75.5 -38t-76 -21.5t-69.5 -7q-68 0 -128.5 19.5t-101.5 57.5 q-25 25 -46.5 58.5t-33.5 80.5q-11 43 -11 100v9q1 62 20 144l95 413h-140z" />
<glyph unicode="v" horiz-adv-x="1155" d="M95 864l40 172h379l-41 -172h-79l62 -639l407 639h-84l41 172h378l-41 -172h-79l-594 -880h-176l-116 880h-97z" />
<glyph unicode="w" horiz-adv-x="1649" d="M95 864l41 172h379l-41 -172h-80l33 -624l416 796h192l41 -796l334 624h-96l41 172h379l-41 -172h-90l-482 -880h-196l-37 794h-4l-414 -794h-197l-74 880h-104z" />
<glyph unicode="x" horiz-adv-x="1137" d="M-35 0l39 172h85l389 365l-227 327h-108l41 172h379l-41 -172h-66l137 -222l225 222h-73l41 172h379l-41 -172h-74l-374 -341l234 -351h95l-39 -172h-379l39 172h75l-146 238l-237 -238h64l-38 -172h-379z" />
<glyph unicode="y" horiz-adv-x="1165" d="M-10 -471l43 172h101l185 290l-114 873h-98l41 172h379l-41 -172h-79l61 -639l408 639h-85l41 172h379l-41 -172h-87l-741 -1163h101l-43 -172h-410z" />
<glyph unicode="z" horiz-adv-x="995" d="M-15 0l25 117l718 760h-337l-35 -148h-197l72 307h790l-26 -121l-714 -755h366l41 178h196l-78 -338h-821z" />
<glyph unicode="{" horiz-adv-x="713" d="M34 670q8 32 15.5 63.5t15.5 63.5q28 0 53.5 10.5t48.5 29t43 43.5t36 54.5t28 62.5t20 66q75 326 86 373q15 63 44 112t66.5 83t79 51.5t81.5 17.5h68.5h68.5q-8 -32 -14.5 -63.5t-14.5 -63.5h-34.5h-34.5q-27 0 -48 -13.5t-38 -39t-30 -62.5t-24 -84 q-20 -88 -39.5 -174t-39.5 -174q-14 -62 -38.5 -110t-56 -84t-67.5 -60t-74 -37q-1 -1 -1 -2t-1 -2q19 -8 36 -20t30.5 -27.5t23.5 -36t16 -44.5q8 -33 6.5 -73t-12.5 -90q-20 -88 -40 -174t-40 -174q-11 -48 -14.5 -84t1.5 -62q3 -13 8 -22.5t12.5 -16t18 -10t24.5 -3.5 h34.5h34.5q-7 -32 -14 -63.5t-14 -63.5h-34.5h-34.5h-34.5h-34.5q-39 0 -73 17.5t-56.5 51.5t-29.5 83t8 112l86 372q14 60 12 117t-24 95q-5 8 -10.5 15.5t-12.5 13.5t-15 11t-17 8.5t-19 5t-21 1.5z" />
<glyph unicode="|" horiz-adv-x="519" d="M-68 -270l461 1996h176l-461 -1996h-176z" />
<glyph unicode="}" horiz-adv-x="734" d="M-70 -233q8 32 14.5 63.5t14.5 63.5h34.5h34.5q27 0 48 13.5t38 39t30 62t24 83.5q20 88 40 174t40 174q14 61 38.5 109.5t55 84.5t67 60t74.5 37q1 1 1 2t1 2q-20 8 -36.5 20t-30 27.5t-23.5 36t-16 44.5q-8 33 -7 73t13 90q21 88 40.5 174t39.5 174q10 47 14 84 t-1.5 62.5t-20.5 39t-42 13.5h-34.5h-34.5q7 32 14 63.5t14 63.5h34.5h34.5h34.5h34.5q33 0 62 -13.5t50.5 -39t34 -62.5t12.5 -84q0 -9 -3 -28.5t-12 -60.5t-11 -50l-68 -299q-8 -33 -10.5 -66t0 -62.5t11 -54.5t23 -43.5t35 -29t48.5 -10.5q-8 -32 -15.5 -63.5 t-15.5 -63.5q-28 0 -54 -10.5t-48.5 -29t-42.5 -44t-36 -55t-28 -62.5t-20 -66q-11 -47 -42.5 -186.5t-43.5 -185.5q-15 -63 -44 -112t-66.5 -83t-79.5 -51.5t-81 -17.5h-68.5h-68.5z" />
<glyph unicode="~" horiz-adv-x="1229" d="M141 483q45 84 106 130t150 46q58 0 119.5 -22.5t119.5 -49t109 -49t89 -22.5q43 0 86.5 34.5t93.5 117.5l73 -115q-45 -84 -105.5 -130t-150.5 -46q-39 0 -79 10.5t-80.5 26.5t-79 34.5t-74 34.5t-67 26.5t-56.5 10.5q-43 0 -86.5 -34t-93.5 -117z" />
<glyph unicode="&#xa1;" horiz-adv-x="850" d="M34 -528l312 1167h178l-230 -1167h-260zM346 936q0 27 10.5 51t28.5 41.5t42 28t52 10.5q27 0 51 -10.5t41.5 -28t28 -41.5t10.5 -51t-10.5 -51.5t-28 -43t-41.5 -29.5t-51 -11q-28 0 -52 11t-42 29.5t-28.5 43t-10.5 51.5z" />
<glyph unicode="&#xa2;" horiz-adv-x="1135" d="M106 449q0 136 51 249.5t134 195.5t178 123.5t184 47.5l57 246h197l-62 -268q77 -26 122 -62t77 -78h125l-29 -172h-209q-16 40 -42.5 70t-60.5 50t-74 30t-83 10q-36 0 -76.5 -13t-80 -38t-75.5 -61.5t-63.5 -84.5t-44 -106.5t-16.5 -126.5q0 -75 22 -132.5t59 -96.5 t86 -58.5t103 -19.5q40 0 75 6.5t66.5 22t61.5 40.5t59 62l146 -109q-39 -55 -88 -93.5t-103.5 -62.5t-106 -33.5t-97.5 -11.5l-50 -217h-196l57 245q-100 38 -166.5 105.5t-101.5 154t-35 186.5z" />
<glyph unicode="&#xa3;" horiz-adv-x="1006" d="M-68 0l39 168h110q69 35 117 83.5t76.5 106t38 123t8 97t-10.5 79.5h-253l33 146h199q-6 43 -9.5 86.5t-3.5 87.5q0 96 24 175.5t68.5 139.5t108 99t123.5 51t116 12q75 0 134.5 -27t96 -74t48 -112t-9.5 -141l-166 -10q8 38 5.5 74t-16.5 64t-40 45t-64 17 q-66 0 -111 -24.5t-72 -65t-38 -93.5t-9 -110q1 -38 3.5 -90.5t7.5 -103.5h278l-32 -146h-235q3 -42 5 -80.5t2 -70.5q0 -99 -56.5 -187.5t-159.5 -150.5h483l-39 -168h-799z" />
<glyph unicode="&#xa4;" horiz-adv-x="1305" d="M75 317l205 179q-22 42 -33.5 88t-11.5 96q0 103 42 192.5t113 158.5l-126 177l143 117l133 -190q56 27 116 42t122 15t116.5 -18t100.5 -50l190 166l113 -131l-188 -166q23 -42 35 -88.5t12 -97.5q0 -99 -39 -185t-105 -154l121 -169l-147 -113l-123 172 q-59 -30 -122.5 -46.5t-129.5 -16.5q-62 0 -117 18t-101 51l-206 -180zM411 694q0 -48 16 -89t45 -72t70 -48.5t92 -17.5q66 0 129.5 27t113 72.5t80 106t30.5 128.5q0 48 -16 89t-45.5 72t-71 48.5t-91.5 17.5q-67 0 -130 -27t-112.5 -72.5t-79.5 -106.5t-30 -128z" />
<glyph unicode="&#xa5;" horiz-adv-x="1384" d="M178 1343l39 173h491l-39 -173h-122l175 -473l411 473h-122l39 173h492l-39 -173h-123l-442 -495h163l-32 -141h-271l-34 -148h270l-33 -141h-270l-57 -246h141l-39 -172h-492l39 172h141l57 246h-270l33 141h270l33 148h-268l33 141h170l-197 495h-147z" />
<glyph unicode="&#xa6;" horiz-adv-x="647" d="M-37 -268l172 749h176l-172 -749h-176zM249 979l174 750h177l-175 -750h-176z" />
<glyph unicode="&#xa7;" horiz-adv-x="1202" d="M-121 -190l37 165h260l-7 -37q-14 -69 4.5 -122.5t74.5 -80t123 -26.5q75 0 140.5 29t100.5 92t35 127q0 41 -14 71t-36.5 51.5t-50 35.5t-55.5 24l-149 54q-71 25 -130.5 73t-84.5 117t-25 143q0 131 70.5 225t201.5 146q-87 98 -87 240q0 91 32.5 166.5t95.5 130 t156 84.5t213 30q92 0 170 -24.5t133.5 -81t68.5 -129.5h89l-39 -166h-250l8 36q8 51 -19 99t-79.5 68t-105.5 20q-65 0 -114.5 -16t-83 -43.5t-50.5 -65t-17 -80.5q0 -36 13.5 -63t34.5 -47t48 -34.5t54 -25.5l158 -61q120 -47 187 -125t67 -197q0 -90 -32.5 -171.5 t-91.5 -136t-157 -92.5q86 -90 86 -226q0 -108 -39 -193t-107.5 -144t-162 -90.5t-203.5 -31.5q-109 0 -200.5 38.5t-132.5 108.5t-45 136h-93zM309 551q0 -50 20.5 -84t53 -53t104.5 -47l58 -23q69 2 124 20.5t93.5 51t59 76.5t20.5 96q0 40 -16 69t-42 49.5t-96 48.5 l-50 17q-81 -2 -142.5 -21t-103 -49.5t-62.5 -69.5t-21 -81z" />
<glyph unicode="&#xa8;" horiz-adv-x="1039" d="M162 1360q0 26 10.5 49.5t28 41t41 28t49.5 10.5q25 0 48 -10.5t40 -28t27 -41t10 -49.5q0 -27 -10 -51t-27 -42.5t-40 -29t-48 -10.5q-26 0 -49.5 10.5t-41 29t-28 42.5t-10.5 51zM621 1360q0 26 10.5 49.5t28 41t41 28t49.5 10.5q25 0 47.5 -10.5t40 -28t27.5 -41 t10 -49.5q0 -27 -10 -51t-27.5 -42.5t-40 -29t-47.5 -10.5q-26 0 -49.5 10.5t-41 29t-28 42.5t-10.5 51z" />
<glyph unicode="&#xa9;" horiz-adv-x="1919" d="M102 831q0 118 30.5 227.5t86 204.5t133.5 173t173 133.5t204.5 86t228.5 30.5q118 0 228 -30.5t205.5 -86t174 -133.5t134.5 -173t86.5 -204.5t30.5 -227.5q0 -119 -30.5 -228.5t-86.5 -204.5t-134.5 -173t-174 -133.5t-205.5 -86t-228 -30.5q-119 0 -228.5 30.5 t-204.5 86t-173 133.5t-133.5 173t-86 204.5t-30.5 228.5zM283 831q0 -142 52.5 -265.5t144 -215t214.5 -144t264 -52.5t263.5 52.5t215 144t145 215t52.5 265.5q0 140 -52.5 269.5t-145 215.5t-215 138.5t-263.5 52.5t-264 -52.5t-214.5 -138.5t-144 -215.5t-52.5 -269.5z M477 834q0 104 39 195.5t107 160t159.5 108t196.5 39.5q58 0 109.5 -12.5t96 -33t81 -47t65.5 -54.5l-141 -131q-48 46 -100.5 67t-110.5 21q-64 0 -120 -24.5t-97.5 -67.5t-65.5 -100t-24 -121t24 -120t65.5 -98t97.5 -66t120 -24q56 0 108.5 22.5t83.5 57.5l134 -129 q-23 -30 -59 -56.5t-79 -46t-91.5 -31t-96.5 -11.5q-105 0 -196.5 39t-159.5 107t-107 159.5t-39 196.5z" />
<glyph unicode="&#xaa;" horiz-adv-x="834" d="M116 1018q0 69 31 115.5t80.5 74.5t111.5 40t123 12q47 0 86 -4.5t68 -10.5l12 49q16 67 -20 98t-105 31q-65 0 -119.5 -13.5t-95.5 -33.5l-26 97q62 37 134 57t144 20q54 0 99 -11t77 -33.5t50 -58t18 -83.5q0 -15 -7.5 -54t-73.5 -323h81l-29 -131h-227l12 52 q-43 -35 -89 -52.5t-109 -17.5q-50 0 -91.5 14.5t-71.5 39t-46.5 57t-16.5 69.5zM262 1034q0 -38 30 -59t82 -21q56 0 106.5 18t84.5 49l31 136h-156q-36 0 -68.5 -8.5t-56.5 -24t-38.5 -38.5t-14.5 -52z" />
<glyph unicode="&#xab;" horiz-adv-x="981" d="M55 567l319 391h197l-322 -413l131 -373h-186zM479 567l319 391h197l-322 -413l131 -373h-186z" />
<glyph unicode="&#xac;" horiz-adv-x="1382" d="M141 827l39 172h1093l-131 -567h-188l92 395h-905z" />
<glyph unicode="&#xad;" horiz-adv-x="0" />
<glyph unicode="&#xae;" horiz-adv-x="1919" d="M102 831q0 118 30.5 227.5t86 204.5t133.5 173t173 133.5t204.5 86t228.5 30.5q118 0 228 -30.5t205.5 -86t174 -133.5t134.5 -173t86.5 -204.5t30.5 -227.5q0 -119 -30.5 -228.5t-86.5 -204.5t-134.5 -173t-174 -133.5t-205.5 -86t-228 -30.5q-119 0 -228.5 30.5 t-204.5 86t-173 133.5t-133.5 173t-86 204.5t-30.5 228.5zM283 831q0 -142 52.5 -265.5t144 -215t214.5 -144t264 -52.5t263.5 52.5t215 144t145 215t52.5 265.5q0 94 -52.5 246.5t-145 238.5t-215 138.5t-263.5 52.5t-264 -52.5t-214.5 -138.5t-144 -215.5t-52.5 -269.5z M551 1188v158h483q73 0 132 -21t100 -58t63.5 -87.5t22.5 -108.5q0 -49 -10 -87t-30.5 -67.5t-50.5 -51.5t-69 -39q31 -17 55.5 -52.5t36.5 -87.5l41 -168h82l2 -158h-256l-51 254q-14 84 -64 121t-129 37h-67v-254h92v-158h-379v158h98v670h-102zM842 928h143 q74 0 118 30.5t44 98.5q0 62 -41.5 96.5t-128.5 34.5h-135v-260z" />
<glyph unicode="&#xaf;" horiz-adv-x="922" d="M121 1229l26 117h744l-27 -117h-743z" />
<glyph unicode="&#xb0;" horiz-adv-x="682" d="M102 1497q0 49 19 92.5t51 76.5t75.5 52t92.5 19t92.5 -19t76.5 -52t52 -76.5t19 -92.5t-19 -92t-52 -75.5t-76.5 -51t-92.5 -18.5t-92.5 18.5t-75.5 51t-51 75.5t-19 92zM205 1497q0 -28 10.5 -52.5t29 -43t43 -29t52.5 -10.5t52.5 10.5t43.5 29t30 43t11 52.5t-11 52.5 t-30 43.5t-43.5 30t-52.5 11t-52.5 -11t-43 -30t-29 -43.5t-10.5 -52.5z" />
<glyph unicode="&#xb1;" horiz-adv-x="1105" d="M-96 0l39 172h1024l-39 -172h-1024zM43 589l43 182h419l78 344h183l-78 -344h422l-43 -182h-421l-88 -354h-182l87 354h-420z" />
<glyph unicode="&#xb2;" horiz-adv-x="609" d="M-27 842l22 102l338 277q27 21 49 40t37.5 37t24 37.5t8.5 42.5q0 32 -26 56t-72 24q-53 0 -91 -30t-51 -78h-124q12 52 38 94.5t62.5 72.5t81.5 46t96 16q46 0 86.5 -15t71 -40.5t48 -60t17.5 -74.5q0 -54 -22.5 -101.5t-83.5 -99.5l-278 -225h284l-29 -121h-487z" />
<glyph unicode="&#xb3;" horiz-adv-x="622" d="M14 1054h133q0 -99 107 -99q63 0 107 34t44 89q0 86 -106 86h-58l25 107h55q64 0 105 31t41 77q0 35 -27 60.5t-74 25.5q-110 0 -137 -98h-137q9 52 51 107.5t103 82.5t132 27q63 0 113 -25.5t78.5 -71.5t28.5 -98q0 -117 -131 -171q75 -41 75 -128q0 -63 -36 -124 t-107.5 -96.5t-157.5 -35.5q-58 0 -113 24t-84.5 71t-29.5 125z" />
<glyph unicode="&#xb4;" horiz-adv-x="645" d="M84 1178l213 299h240v-17l-299 -282h-154z" />
<glyph unicode="&#xb5;" d="M-89 -471l349 1507h200l-135 -583q-23 -84 -18 -153t55.5 -108.5t142.5 -41.5q47 0 97 21t87 55t62 73l172 737h201l-200 -864h202l-39 -172h-395l23 105q-31 -33 -68 -56.5t-75.5 -38.5t-76.5 -21.5t-70 -6.5q-56 0 -106.5 13t-90.5 38l-116 -504h-201z" />
<glyph unicode="&#xb6;" horiz-adv-x="1343" d="M178 1028q0 114 44 204.5t123.5 153.5t190 96.5t244.5 33.5h618l-41 -173h-94l-395 -1712h-187l395 1712h-223l-395 -1712h-186l247 1071q-79 6 -142 32.5t-107.5 69t-68 99.5t-23.5 125z" />
<glyph unicode="&#xb7;" horiz-adv-x="612" d="M223 -2332q0 26 10.5 49.5t28 41t41.5 28t51 10.5q26 0 49.5 -10.5t41 -28t28 -41t10.5 -49.5q0 -27 -10.5 -51t-28 -42.5t-41 -29t-49.5 -10.5q-27 0 -51 10.5t-41.5 29t-28 42.5t-10.5 51z" />
<glyph unicode="&#xb8;" horiz-adv-x="940" d="M182 -303q55 1 99.5 19.5t78 48.5t55 70.5t29.5 86.5l150 -45q-18 -73 -56 -130.5t-90.5 -97t-117.5 -60.5t-137 -21z" />
<glyph unicode="&#xb9;" horiz-adv-x="486" d="M75 840l25 116h84l103 436l-161 -75l35 143l244 119h61l-142 -623h81l-26 -116h-304z" />
<glyph unicode="&#xba;" horiz-adv-x="772" d="M75 1153q0 91 35 167.5t94.5 132t137.5 87t165 31.5q69 0 127.5 -23t101 -63.5t67 -95t24.5 -117.5q0 -92 -32.5 -170t-90.5 -134.5t-137 -88t-172 -31.5q-69 0 -128 24.5t-101.5 66.5t-66.5 97t-24 117zM231 1163q0 -38 13.5 -71.5t37 -58t55 -38.5t68.5 -14 q54 0 102.5 20t85 56.5t58.5 88t22 114.5q0 40 -14 73t-38 55.5t-56.5 35t-69.5 12.5q-52 0 -100 -19t-84.5 -54.5t-58 -86t-21.5 -113.5z" />
<glyph unicode="&#xbb;" horiz-adv-x="981" d="M14 172l321 414l-131 372h187l139 -395l-320 -391h-196zM438 172l321 414l-131 372h187l139 -395l-320 -391h-196z" />
<glyph unicode="&#xbc;" horiz-adv-x="2058" d="M82 -61l1634 1638h220l-1635 -1638h-219zM198 780l25 116h84l103 436l-161 -75l35 143l244 119h61l-142 -623h81l-26 -116h-304zM1146 195l23 108l387 457h148l-379 -455h182l39 164h135l-39 -164h113l-25 -110h-112l-46 -195h-135l45 195h-336z" />
<glyph unicode="&#xbd;" horiz-adv-x="1956" d="M82 -61l1634 1638h220l-1635 -1638h-219zM198 780l25 116h84l103 436l-161 -75l35 143l244 119h61l-142 -623h81l-26 -116h-304zM1170 0l28 121l338 276q47 35 77 72t30 72q0 30 -20.5 50.5t-61.5 20.5q-49 0 -84 -28.5t-45 -71.5h-156q12 57 42 102t71 76t92 46.5 t104 15.5q45 0 85 -14.5t70 -39t47 -59.5t17 -78q0 -31 -4 -54.5t-13 -45t-27.5 -42t-45.5 -42.5l-282 -236h274l-33 -141h-503z" />
<glyph unicode="&#xbe;" horiz-adv-x="2214" d="M26 1008h133q0 -99 107 -99q63 0 107 34t44 89q0 86 -106 86h-58l25 107h55q64 0 105 31t41 77q0 35 -27 60.5t-74 25.5q-110 0 -137 -98h-137q9 52 51 107.5t103 82.5t132 27q63 0 113 -25.5t78.5 -71.5t28.5 -98q0 -117 -131 -171q75 -41 75 -128q0 -63 -36 -124 t-107.5 -96.5t-157.5 -35.5q-58 0 -113 24t-84.5 71t-29.5 125zM102 -61l1634 1638h220l-1635 -1638h-219zM1167 195l23 108l387 457h148l-379 -455h182l39 164h135l-39 -164h113l-25 -110h-112l-46 -195h-135l45 195h-336z" />
<glyph unicode="&#xbf;" horiz-adv-x="1000" d="M-68 -193q0 72 19 130t55.5 107.5t90 93t122.5 85.5q49 29 87 51t68 44.5t53.5 47.5t42.5 60t35 82.5t31 114.5h199q-14 -70 -29 -123.5t-33 -95.5t-40 -75t-51 -62.5t-67 -57.5t-87 -59q-71 -45 -124.5 -80t-89 -70t-53.5 -74.5t-18 -93.5q0 -36 14 -67.5t40.5 -55.5 t64.5 -37.5t86 -13.5q55 0 101 18t81 50t60 76.5t38 97.5l207 -19q-23 -95 -70 -171t-113 -130t-149.5 -83t-179.5 -29q-95 0 -168 29.5t-122.5 77.5t-75 108.5t-25.5 123.5zM546 932q0 27 10.5 51.5t28 43t41.5 29.5t51 11q28 0 52 -11t42 -29.5t28.5 -43t10.5 -51.5 t-10.5 -51t-28.5 -41.5t-42 -28t-52 -10.5q-27 0 -51 10.5t-41.5 28t-28 41.5t-10.5 51z" />
<glyph unicode="&#xc0;" horiz-adv-x="1458" d="M-150 0l39 172h131l760 1344h323l158 -1344h150l-39 -172h-492l39 172h127l-37 342h-574l-191 -342h136l-38 -172h-492zM531 686h459l-75 688zM542 1939v17h248l184 -299h-145z" />
<glyph unicode="&#xc1;" horiz-adv-x="1458" d="M-150 0l39 172h131l760 1344h323l158 -1344h150l-39 -172h-492l39 172h127l-37 342h-574l-191 -342h136l-38 -172h-492zM531 686h459l-75 688zM815 1657l213 299h240v-17l-299 -282h-154z" />
<glyph unicode="&#xc2;" horiz-adv-x="1458" d="M-150 0l39 172h131l760 1344h323l158 -1344h150l-39 -172h-492l39 172h127l-37 342h-574l-191 -342h136l-38 -172h-492zM531 686h459l-75 688zM672 1650l297 273h111l151 -273h-170l-64 125l-119 -125h-206z" />
<glyph unicode="&#xc3;" horiz-adv-x="1458" d="M-150 0l39 172h131l760 1344h323l158 -1344h150l-39 -172h-492l39 172h127l-37 342h-574l-191 -342h136l-38 -172h-492zM531 686h459l-75 688zM644 1730q13 47 37 78.5t54 50.5t64.5 27t69.5 8q50 0 86.5 -16.5t68 -36t62.5 -35.5t70 -16q28 0 54.5 19t35.5 61l119 -35 q-20 -85 -78 -131.5t-139 -46.5q-56 0 -95 15.5t-71 33.5t-60 33.5t-61 15.5q-15 0 -30.5 -2t-30.5 -9.5t-27.5 -23t-19.5 -43.5z" />
<glyph unicode="&#xc4;" horiz-adv-x="1458" d="M-150 0l39 172h131l760 1344h323l158 -1344h150l-39 -172h-492l39 172h127l-37 342h-574l-191 -342h136l-38 -172h-492zM531 686h459l-75 688zM625 1839q0 26 10.5 49.5t28 41t41 28t49.5 10.5q25 0 48 -10.5t40 -28t27 -41t10 -49.5q0 -27 -10 -51t-27 -42.5t-40 -29 t-48 -10.5q-26 0 -49.5 10.5t-41 29t-28 42.5t-10.5 51zM1084 1839q0 26 10.5 49.5t28 41t41 28t49.5 10.5q25 0 47.5 -10.5t40 -28t27.5 -41t10 -49.5q0 -27 -10 -51t-27.5 -42.5t-40 -29t-47.5 -10.5q-26 0 -49.5 10.5t-41 29t-28 42.5t-10.5 51z" />
<glyph unicode="&#xc5;" horiz-adv-x="1456" d="M-150 0l39 172h131l734 1298q-29 35 -46.5 78t-17.5 90q0 52 20.5 99t55.5 81.5t81 55t99 20.5q51 0 98.5 -20.5t82 -55t55 -81.5t20.5 -99q0 -59 -24.5 -109t-65.5 -85l150 -1272h149l-39 -172h-491l39 172h127l-37 342h-576l-190 -342h137l-39 -172h-492zM530 686h461 l-76 688zM842 1638q0 -41 31.5 -72.5t72.5 -31.5t73 31.5t32 72.5t-32 73t-73 32t-72.5 -32t-31.5 -73z" />
<glyph unicode="&#xc6;" horiz-adv-x="1991" d="M-170 0l38 172h127l990 1344h1101l-100 -433h-207l62 260h-541l-111 -485h447l-43 -172h-443l-118 -514h534l62 262h209l-101 -434h-1085l39 172h133l79 342h-412l-252 -342h122l-39 -172h-491zM617 686h325l148 642z" />
<glyph unicode="&#xc7;" horiz-adv-x="1468" d="M75 655q0 125 29.5 240t83.5 213.5t131 179t172.5 137.5t207 88t234.5 31q170 0 302.5 -68.5t217.5 -189.5h156l-41 -172h-276q-22 51 -58.5 94t-85 73.5t-108.5 47.5t-129 17q-132 0 -244 -53.5t-194 -145.5t-128 -214.5t-46 -260.5q0 -115 36 -207.5t96 -157t139 -99 t165 -34.5q151 0 265.5 62.5t201.5 187.5l192 -102q-58 -82 -129 -146.5t-156 -109t-184 -68t-213 -23.5q-137 0 -253.5 51.5t-201.5 142.5t-133.5 215.5t-48.5 270.5zM551 -303q55 1 99.5 19.5t78 48.5t55 70.5t29.5 86.5l150 -45q-18 -73 -56 -130.5t-90.5 -97 t-117.5 -60.5t-137 -21z" />
<glyph unicode="&#xc8;" horiz-adv-x="1415" d="M75 0l39 172h134l270 1171h-148l41 173h1100l-100 -433h-207l61 260h-540l-111 -485h446l-43 -172h-442l-118 -514h534l61 262h209l-100 -434h-1086zM589 1940v17h248l184 -299h-145z" />
<glyph unicode="&#xc9;" horiz-adv-x="1415" d="M75 0l39 172h134l270 1171h-148l41 173h1100l-100 -433h-207l61 260h-540l-111 -485h446l-43 -172h-442l-118 -514h534l61 262h209l-100 -434h-1086zM862 1658l213 299h240v-17l-299 -282h-154z" />
<glyph unicode="&#xca;" horiz-adv-x="1415" d="M75 0l39 172h134l270 1171h-148l41 173h1100l-100 -433h-207l61 260h-540l-111 -485h446l-43 -172h-442l-118 -514h534l61 262h209l-100 -434h-1086zM753 1651l297 273h111l151 -273h-170l-64 125l-119 -125h-206z" />
<glyph unicode="&#xcb;" horiz-adv-x="1415" d="M75 0l39 172h134l270 1171h-148l41 173h1100l-100 -433h-207l61 260h-540l-111 -485h446l-43 -172h-442l-118 -514h534l61 262h209l-100 -434h-1086zM672 1840q0 26 10.5 49.5t28 41t41 28t49.5 10.5q25 0 48 -10.5t40 -28t27 -41t10 -49.5q0 -27 -10 -51t-27 -42.5 t-40 -29t-48 -10.5q-26 0 -49.5 10.5t-41 29t-28 42.5t-10.5 51zM1131 1840q0 26 10.5 49.5t28 41t41 28t49.5 10.5q25 0 47.5 -10.5t40 -28t27.5 -41t10 -49.5q0 -27 -10 -51t-27.5 -42.5t-40 -29t-47.5 -10.5q-26 0 -49.5 10.5t-41 29t-28 42.5t-10.5 51z" />
<glyph unicode="&#xcc;" horiz-adv-x="883" d="M75 0l39 172h144l270 1171h-143l40 173h492l-41 -173h-141l-268 -1171h139l-39 -172h-492zM325 1940v17h248l184 -299h-145z" />
<glyph unicode="&#xcd;" horiz-adv-x="883" d="M75 0l39 172h144l270 1171h-143l40 173h492l-41 -173h-141l-268 -1171h139l-39 -172h-492zM614 1658l213 299h240v-17l-299 -282h-154z" />
<glyph unicode="&#xce;" horiz-adv-x="883" d="M75 0l39 172h144l270 1171h-143l40 173h492l-41 -173h-141l-268 -1171h139l-39 -172h-492zM446 1651l267 273h112l120 -273h-160l-44 125l-105 -125h-190z" />
<glyph unicode="&#xcf;" horiz-adv-x="883" d="M75 0l39 172h144l270 1171h-143l40 173h492l-41 -173h-141l-268 -1171h139l-39 -172h-492zM416 1840q0 53 38 91t91 38q25 0 48.5 -10.5t40 -27.5t26.5 -41t10 -50q0 -27 -10 -51.5t-26.5 -43t-40 -28.5t-48.5 -10q-53 0 -91 40t-38 93zM732 1840q0 53 38 91t91 38 q24 0 48 -10.5t40 -27.5t26.5 -41t10.5 -50q0 -27 -10.5 -51.5t-26.5 -43t-40 -28.5t-48 -10q-53 0 -91 40t-38 93z" />
<glyph unicode="&#xd0;" horiz-adv-x="1561" d="M75 0l39 172h132l119 518h-181l39 172h182l111 481h-131l40 173h549q133 0 240.5 -50.5t183 -138t116 -204.5t40.5 -249q0 -131 -31.5 -246.5t-89 -213t-139.5 -174t-182 -130t-216 -82t-243 -28.5h-578zM455 172h220q83 0 164 22t154.5 64t136 102t108 136t71.5 167 t26 195q0 97 -27.5 184.5t-78 154.5t-122 106.5t-159.5 39.5h-225l-110 -481h241l-39 -172h-242z" />
<glyph unicode="&#xd1;" horiz-adv-x="1786" d="M75 0l39 172h133l271 1171h-150l41 173h416l408 -1246l246 1073h-148l39 173h491l-39 -173h-136l-308 -1343h-262l-413 1255l-249 -1083h152l-39 -172h-492zM840 1731q13 47 37 78.5t54 50.5t64.5 27t69.5 8q50 0 86.5 -16.5t68 -36t62.5 -35.5t70 -16q28 0 54.5 19 t35.5 61l119 -35q-20 -85 -78 -131.5t-139 -46.5q-56 0 -95 15.5t-71 33.5t-60 33.5t-61 15.5q-15 0 -30.5 -2t-30.5 -9.5t-27.5 -23t-19.5 -43.5z" />
<glyph unicode="&#xd2;" horiz-adv-x="1577" d="M75 655q0 131 31 247.5t87 215.5t134.5 178t174 134t204.5 84.5t227 29.5q128 0 243.5 -44.5t203 -129.5t139 -208.5t51.5 -280.5q0 -134 -30 -254t-84.5 -221t-132 -182t-173 -137.5t-206.5 -87t-232 -30.5q-128 0 -243.5 49t-203 138.5t-139 216t-51.5 282.5zM299 672 q0 -107 32.5 -198.5t90.5 -158.5t138 -105t175 -38q86 0 165 24t147 68.5t123.5 107t94.5 139.5t60.5 166t21.5 187q0 109 -32.5 197t-90.5 150.5t-138 96t-175 33.5q-124 0 -235 -50t-195 -139.5t-133 -212t-49 -267.5zM569 1980v17h248l184 -299h-145z" />
<glyph unicode="&#xd3;" horiz-adv-x="1577" d="M75 655q0 131 31 247.5t87 215.5t134.5 178t174 134t204.5 84.5t227 29.5q128 0 243.5 -44.5t203 -129.5t139 -208.5t51.5 -280.5q0 -134 -30 -254t-84.5 -221t-132 -182t-173 -137.5t-206.5 -87t-232 -30.5q-128 0 -243.5 49t-203 138.5t-139 216t-51.5 282.5zM299 672 q0 -107 32.5 -198.5t90.5 -158.5t138 -105t175 -38q86 0 165 24t147 68.5t123.5 107t94.5 139.5t60.5 166t21.5 187q0 109 -32.5 197t-90.5 150.5t-138 96t-175 33.5q-124 0 -235 -50t-195 -139.5t-133 -212t-49 -267.5zM842 1698l213 299h240v-17l-299 -282h-154z" />
<glyph unicode="&#xd4;" horiz-adv-x="1577" d="M75 655q0 131 31 247.5t87 215.5t134.5 178t174 134t204.5 84.5t227 29.5q128 0 243.5 -44.5t203 -129.5t139 -208.5t51.5 -280.5q0 -134 -30 -254t-84.5 -221t-132 -182t-173 -137.5t-206.5 -87t-232 -30.5q-128 0 -243.5 49t-203 138.5t-139 216t-51.5 282.5zM299 672 q0 -107 32.5 -198.5t90.5 -158.5t138 -105t175 -38q86 0 165 24t147 68.5t123.5 107t94.5 139.5t60.5 166t21.5 187q0 109 -32.5 197t-90.5 150.5t-138 96t-175 33.5q-124 0 -235 -50t-195 -139.5t-133 -212t-49 -267.5zM733 1691l297 273h111l151 -273h-170l-64 125 l-119 -125h-206z" />
<glyph unicode="&#xd5;" horiz-adv-x="1577" d="M75 655q0 131 31 247.5t87 215.5t134.5 178t174 134t204.5 84.5t227 29.5q128 0 243.5 -44.5t203 -129.5t139 -208.5t51.5 -280.5q0 -134 -30 -254t-84.5 -221t-132 -182t-173 -137.5t-206.5 -87t-232 -30.5q-128 0 -243.5 49t-203 138.5t-139 216t-51.5 282.5zM299 672 q0 -107 32.5 -198.5t90.5 -158.5t138 -105t175 -38q86 0 165 24t147 68.5t123.5 107t94.5 139.5t60.5 166t21.5 187q0 109 -32.5 197t-90.5 150.5t-138 96t-175 33.5q-124 0 -235 -50t-195 -139.5t-133 -212t-49 -267.5zM670 1771q13 47 37 78.5t54 50.5t64.5 27t69.5 8 q50 0 86.5 -16.5t68 -36t62.5 -35.5t70 -16q28 0 54.5 19t35.5 61l119 -35q-20 -85 -78 -131.5t-139 -46.5q-56 0 -95 15.5t-71 33.5t-60 33.5t-61 15.5q-15 0 -30.5 -2t-30.5 -9.5t-27.5 -23t-19.5 -43.5z" />
<glyph unicode="&#xd6;" horiz-adv-x="1577" d="M75 655q0 131 31 247.5t87 215.5t134.5 178t174 134t204.5 84.5t227 29.5q128 0 243.5 -44.5t203 -129.5t139 -208.5t51.5 -280.5q0 -134 -30 -254t-84.5 -221t-132 -182t-173 -137.5t-206.5 -87t-232 -30.5q-128 0 -243.5 49t-203 138.5t-139 216t-51.5 282.5zM299 672 q0 -107 32.5 -198.5t90.5 -158.5t138 -105t175 -38q86 0 165 24t147 68.5t123.5 107t94.5 139.5t60.5 166t21.5 187q0 109 -32.5 197t-90.5 150.5t-138 96t-175 33.5q-124 0 -235 -50t-195 -139.5t-133 -212t-49 -267.5zM651 1880q0 26 10.5 49.5t28 41t41 28t49.5 10.5 q25 0 48 -10.5t40 -28t27 -41t10 -49.5q0 -27 -10 -51t-27 -42.5t-40 -29t-48 -10.5q-26 0 -49.5 10.5t-41 29t-28 42.5t-10.5 51zM1110 1880q0 26 10.5 49.5t28 41t41 28t49.5 10.5q25 0 47.5 -10.5t40 -28t27.5 -41t10 -49.5q0 -27 -10 -51t-27.5 -42.5t-40 -29 t-47.5 -10.5q-26 0 -49.5 10.5t-41 29t-28 42.5t-10.5 51z" />
<glyph unicode="&#xd7;" horiz-adv-x="1221" d="M20 242l490 460l-256 426l160 117l244 -405l450 422l133 -140l-480 -452l273 -451l-164 -113l-257 425l-459 -431z" />
<glyph unicode="&#xd8;" horiz-adv-x="1577" d="M75 655q0 131 31 247.5t87 215.5t134.5 178t174 134t204.5 84.5t227 29.5q165 0 301 -71l46 63h228l-124 -171q84 -83 135 -205t51 -279q0 -134 -30 -254t-84.5 -221t-132 -182t-173 -137.5t-206.5 -87t-232 -30.5q-158 0 -293 72l-45 -61h-228l124 171 q-92 95 -143.5 221.5t-51.5 282.5zM299 672q0 -107 30 -192t76 -145l701 963q-100 43 -195 43q-124 0 -235 -50t-195 -139.5t-133 -212t-49 -267.5zM546 216q94 -44 189 -44q86 0 165 24t147 68.5t123.5 107t94.5 139.5t60.5 166t21.5 187q0 109 -29 186.5t-69 130.5z" />
<glyph unicode="&#xd9;" horiz-adv-x="1581" d="M202 455q0 45 6 89.5t17 94.5l162 704h-144l39 173h492l-39 -173h-140l-161 -704q-8 -35 -14.5 -74.5t-6.5 -89.5q-1 -55 17 -108.5t56 -96t97 -68.5t141 -26q83 0 153.5 23.5t127.5 78t100.5 143t73.5 218.5l162 704h-152l39 173h492l-39 -173h-133l-166 -722 q-39 -171 -103.5 -293.5t-150.5 -201t-192 -115t-230 -36.5q-109 0 -202.5 32.5t-161 94t-105 150.5t-35.5 203zM606 1940v17h248l184 -299h-145z" />
<glyph unicode="&#xda;" horiz-adv-x="1581" d="M202 455q0 45 6 89.5t17 94.5l162 704h-144l39 173h492l-39 -173h-140l-161 -704q-8 -35 -14.5 -74.5t-6.5 -89.5q-1 -55 17 -108.5t56 -96t97 -68.5t141 -26q83 0 153.5 23.5t127.5 78t100.5 143t73.5 218.5l162 704h-152l39 173h492l-39 -173h-133l-166 -722 q-39 -171 -103.5 -293.5t-150.5 -201t-192 -115t-230 -36.5q-109 0 -202.5 32.5t-161 94t-105 150.5t-35.5 203zM894 1658l213 299h240v-17l-299 -282h-154z" />
<glyph unicode="&#xdb;" horiz-adv-x="1581" d="M202 455q0 45 6 89.5t17 94.5l162 704h-144l39 173h492l-39 -173h-140l-161 -704q-8 -35 -14.5 -74.5t-6.5 -89.5q-1 -55 17 -108.5t56 -96t97 -68.5t141 -26q83 0 153.5 23.5t127.5 78t100.5 143t73.5 218.5l162 704h-152l39 173h492l-39 -173h-133l-166 -722 q-39 -171 -103.5 -293.5t-150.5 -201t-192 -115t-230 -36.5q-109 0 -202.5 32.5t-161 94t-105 150.5t-35.5 203zM770 1651l297 273h111l151 -273h-170l-64 125l-119 -125h-206z" />
<glyph unicode="&#xdc;" horiz-adv-x="1581" d="M202 455q0 45 6 89.5t17 94.5l162 704h-144l39 173h492l-39 -173h-140l-161 -704q-8 -35 -14.5 -74.5t-6.5 -89.5q-1 -55 17 -108.5t56 -96t97 -68.5t141 -26q83 0 153.5 23.5t127.5 78t100.5 143t73.5 218.5l162 704h-152l39 173h492l-39 -173h-133l-166 -722 q-39 -171 -103.5 -293.5t-150.5 -201t-192 -115t-230 -36.5q-109 0 -202.5 32.5t-161 94t-105 150.5t-35.5 203zM689 1840q0 26 10.5 49.5t28 41t41 28t49.5 10.5q25 0 48 -10.5t40 -28t27 -41t10 -49.5q0 -27 -10 -51t-27 -42.5t-40 -29t-48 -10.5q-26 0 -49.5 10.5t-41 29 t-28 42.5t-10.5 51zM1148 1840q0 26 10.5 49.5t28 41t41 28t49.5 10.5q25 0 47.5 -10.5t40 -28t27.5 -41t10 -49.5q0 -27 -10 -51t-27.5 -42.5t-40 -29t-47.5 -10.5q-26 0 -49.5 10.5t-41 29t-28 42.5t-10.5 51z" />
<glyph unicode="&#xdd;" horiz-adv-x="1323" d="M175 1343l39 173h491l-39 -173h-122l175 -473l411 473h-122l39 173h492l-39 -173h-123l-586 -656l-120 -515h141l-39 -172h-492l39 172h141l120 519l-259 652h-147zM744 1658l213 299h240v-17l-299 -282h-154z" />
<glyph unicode="&#xde;" horiz-adv-x="1320" d="M75 0l39 172h144l270 1171h-143l40 173h492l-41 -173h-141l-31 -135h272q88 0 162.5 -23t128.5 -67.5t84.5 -108.5t30.5 -145q0 -104 -38.5 -191.5t-110 -151t-173 -99t-227.5 -35.5h-317l-49 -215h139l-39 -172h-492zM556 559h291q69 0 128 18.5t102.5 54.5t68.5 90 t25 126q0 85 -57 136.5t-181 51.5h-268z" />
<glyph unicode="&#xdf;" horiz-adv-x="1348" d="M-48 0l39 172h195l233 1008q21 92 63.5 165.5t104 125t142 79t178.5 27.5q84 0 152.5 -27.5t117.5 -76t76 -114.5t27 -142q0 -63 -17.5 -113t-45 -89.5t-61.5 -69.5t-67 -54q34 -27 64 -61.5t52.5 -76t35 -89.5t12.5 -101q0 -128 -49 -233.5t-133 -180.5t-197 -116 t-240 -41q-20 0 -47 1.5t-47 4.5l43 184q20 -5 37 -6.5t37 -1.5q75 0 146 27.5t126.5 77t89 117t33.5 147.5q0 57 -20 104.5t-54 81t-79 52t-95 18.5h-80l44 186h75q45 0 87.5 15.5t75.5 44.5t53 69.5t20 91.5q0 40 -13.5 74t-39 58.5t-62 38.5t-82.5 14q-48 0 -91 -17.5 t-78 -48.5t-60 -74t-37 -94l-266 -1157h-398z" />
<glyph unicode="&#xe0;" horiz-adv-x="1307" d="M104 406q0 145 51 266t138.5 208t204 135t247.5 48q75 0 141 -22.5t108 -58.5l13 54h201l-200 -864h161l-39 -172h-363l16 70q-67 -45 -134.5 -66.5t-139.5 -21.5q-85 0 -159 33t-128.5 90t-86 134.5t-31.5 166.5zM311 426q0 -64 18 -114.5t50 -85.5t77.5 -53.5 t99.5 -18.5q37 0 75.5 9t73.5 23t66 32.5t55 38.5l129 554q-26 33 -81 56.5t-144 23.5q-77 0 -152 -31.5t-134 -91t-96 -146t-37 -196.5zM407 1460v17h248l184 -299h-145z" />
<glyph unicode="&#xe1;" horiz-adv-x="1307" d="M104 406q0 145 51 266t138.5 208t204 135t247.5 48q75 0 141 -22.5t108 -58.5l13 54h201l-200 -864h161l-39 -172h-363l16 70q-67 -45 -134.5 -66.5t-139.5 -21.5q-85 0 -159 33t-128.5 90t-86 134.5t-31.5 166.5zM311 426q0 -64 18 -114.5t50 -85.5t77.5 -53.5 t99.5 -18.5q37 0 75.5 9t73.5 23t66 32.5t55 38.5l129 554q-26 33 -81 56.5t-144 23.5q-77 0 -152 -31.5t-134 -91t-96 -146t-37 -196.5zM650 1178l213 299h240v-17l-299 -282h-154z" />
<glyph unicode="&#xe2;" horiz-adv-x="1307" d="M104 406q0 145 51 266t138.5 208t204 135t247.5 48q75 0 141 -22.5t108 -58.5l13 54h201l-200 -864h161l-39 -172h-363l16 70q-67 -45 -134.5 -66.5t-139.5 -21.5q-85 0 -159 33t-128.5 90t-86 134.5t-31.5 166.5zM311 426q0 -64 18 -114.5t50 -85.5t77.5 -53.5 t99.5 -18.5q37 0 75.5 9t73.5 23t66 32.5t55 38.5l129 554q-26 33 -81 56.5t-144 23.5q-77 0 -152 -31.5t-134 -91t-96 -146t-37 -196.5zM552 1171l297 273h111l151 -273h-170l-64 125l-119 -125h-206z" />
<glyph unicode="&#xe3;" horiz-adv-x="1307" d="M92 406q0 145 51 266t138.5 208t204 135t247.5 48q75 0 141 -22.5t108 -58.5l13 54h201l-200 -864h161l-39 -172h-363l16 70q-67 -45 -134.5 -66.5t-139.5 -21.5q-85 0 -159 33t-128.5 90t-86 134.5t-31.5 166.5zM299 426q0 -64 18 -114.5t50 -85.5t77.5 -53.5 t99.5 -18.5q37 0 75.5 9t73.5 23t66 32.5t55 38.5l129 554q-26 33 -81 56.5t-144 23.5q-77 0 -152 -31.5t-134 -91t-96 -146t-37 -196.5zM428 1251q13 47 37 78.5t54 50.5t64.5 27t69.5 8q50 0 86.5 -16.5t68 -36t62.5 -35.5t70 -16q28 0 54.5 19t35.5 61l119 -35 q-20 -85 -78 -131.5t-139 -46.5q-56 0 -95 15.5t-71 33.5t-60 33.5t-61 15.5q-15 0 -30.5 -2t-30.5 -9.5t-27.5 -23t-19.5 -43.5z" />
<glyph unicode="&#xe4;" horiz-adv-x="1307" d="M104 406q0 145 51 266t138.5 208t204 135t247.5 48q75 0 141 -22.5t108 -58.5l13 54h201l-200 -864h161l-39 -172h-363l16 70q-67 -45 -134.5 -66.5t-139.5 -21.5q-85 0 -159 33t-128.5 90t-86 134.5t-31.5 166.5zM311 426q0 -64 18 -114.5t50 -85.5t77.5 -53.5 t99.5 -18.5q37 0 75.5 9t73.5 23t66 32.5t55 38.5l129 554q-26 33 -81 56.5t-144 23.5q-77 0 -152 -31.5t-134 -91t-96 -146t-37 -196.5zM451 1360q0 26 10.5 49.5t28 41t41 28t49.5 10.5q25 0 48 -10.5t40 -28t27 -41t10 -49.5q0 -27 -10 -51t-27 -42.5t-40 -29t-48 -10.5 q-26 0 -49.5 10.5t-41 29t-28 42.5t-10.5 51zM910 1360q0 26 10.5 49.5t28 41t41 28t49.5 10.5q25 0 47.5 -10.5t40 -28t27.5 -41t10 -49.5q0 -27 -10 -51t-27.5 -42.5t-40 -29t-47.5 -10.5q-26 0 -49.5 10.5t-41 29t-28 42.5t-10.5 51z" />
<glyph unicode="&#xe5;" horiz-adv-x="1307" d="M92 406q0 145 51 266t138.5 208t204 135t247.5 48q75 0 141 -22.5t108 -58.5l13 54h201l-200 -864h161l-39 -172h-363l16 70q-67 -45 -134.5 -66.5t-139.5 -21.5q-85 0 -159 33t-128.5 90t-86 134.5t-31.5 166.5zM299 426q0 -64 18 -114.5t50 -85.5t77.5 -53.5 t99.5 -18.5q37 0 75.5 9t73.5 23t66 32.5t55 38.5l129 554q-26 33 -81 56.5t-144 23.5q-77 0 -152 -31.5t-134 -91t-96 -146t-37 -196.5zM561 1342q0 52 20.5 99t55.5 81.5t81.5 55t98.5 20.5t99 -20.5t81.5 -55t55 -81.5t20.5 -99t-20.5 -98.5t-55 -81.5t-81.5 -55.5 t-99 -20.5t-98.5 20.5t-81.5 55.5t-55.5 81.5t-20.5 98.5zM713 1342q0 -21 8.5 -39.5t23 -33t33 -23t39.5 -8.5t40 8.5t33.5 23t23 33t8.5 39.5t-8.5 40t-23 33.5t-33.5 23t-40 8.5t-39.5 -8.5t-33 -23t-23 -33.5t-8.5 -40z" />
<glyph unicode="&#xe6;" horiz-adv-x="1755" d="M-6 246q0 74 24 129t64.5 95t93 66.5t109.5 42t114.5 21.5t108.5 6q68 0 119.5 -5.5t89.5 -15.5l23 95q13 55 6 95.5t-30 67t-61.5 39.5t-88.5 13q-47 0 -91.5 -6.5t-85 -17t-75 -24t-60.5 -28.5l-30 129q42 24 91 44.5t100.5 35t104 23t101.5 8.5q109 0 182.5 -33.5 t107.5 -105.5q78 69 177.5 108t214.5 39q99 0 176.5 -33.5t131.5 -88.5t82 -127t28 -148q0 -51 -5.5 -98.5t-13.5 -88.5h-796q-1 -14 -1.5 -24t-0.5 -19q0 -63 20.5 -117t56.5 -93.5t86.5 -62t110.5 -22.5q81 0 153 32.5t122 94.5l147 -108q-34 -45 -81 -81t-104 -61.5 t-121.5 -39t-131.5 -13.5q-64 0 -122.5 14.5t-109.5 42t-92.5 68t-71.5 92.5q-39 -53 -87.5 -93t-104 -67t-115.5 -41t-123 -14q-72 0 -134.5 16t-108.5 50t-72.5 85.5t-26.5 123.5zM183 272q0 -74 46.5 -109.5t125.5 -35.5q104 0 198 46.5t166 131.5q-8 32 -12 66.5 t-4 72.5q0 16 1 33h-230q-61 0 -114 -14t-92.5 -40t-62 -64.5t-22.5 -86.5zM938 645h590q1 62 -16.5 109.5t-51 79t-80.5 47.5t-104 16q-59 0 -111.5 -19t-96 -53t-76.5 -80t-54 -100z" />
<glyph unicode="&#xe7;" horiz-adv-x="1135" d="M95 449q0 136 51 249.5t134 195.5t187.5 127.5t211.5 45.5q50 0 100 -9.5t96 -30t86 -51.5t72 -73h125l-28 -172h-209q-16 40 -42.5 70t-60.5 50t-74 30t-83 10q-55 0 -117.5 -28.5t-116 -83.5t-88.5 -135t-35 -183q0 -75 22 -132.5t59 -96.5t86 -58.5t104 -19.5 q40 0 75 6.5t66.5 22t61.5 40.5t59 62l145 -109q-39 -55 -88 -93.5t-103 -62.5t-111.5 -34.5t-113.5 -10.5q-102 0 -188.5 36.5t-149 100.5t-98 150.5t-35.5 186.5zM307 -303q55 1 99.5 19.5t78 48.5t55 70.5t29.5 86.5l150 -45q-18 -73 -56 -130.5t-90.5 -97t-117.5 -60.5 t-137 -21z" />
<glyph unicode="&#xe8;" horiz-adv-x="1171" d="M115 444q0 129 45.5 242.5t126 198t190.5 133.5t238 49q99 0 176.5 -33.5t131.5 -88.5t82 -127t28 -148q0 -51 -5.5 -98.5t-13.5 -88.5h-796q-1 -14 -2 -24t-1 -19q0 -63 20.5 -117t57 -93.5t87 -62t110.5 -22.5q80 0 152.5 32.5t121.5 94.5l148 -108q-34 -45 -81 -81 t-104 -61.5t-121.5 -39t-131.5 -13.5q-96 0 -179.5 32t-146 93t-98 149.5t-35.5 200.5zM323 1460v17h248l184 -299h-145zM350 645h590q1 62 -16.5 109.5t-51 79t-80.5 47.5t-104 16q-60 0 -112.5 -19t-95.5 -53t-76 -80t-54 -100z" />
<glyph unicode="&#xe9;" horiz-adv-x="1171" d="M115 444q0 129 45.5 242.5t126 198t190.5 133.5t238 49q99 0 176.5 -33.5t131.5 -88.5t82 -127t28 -148q0 -51 -5.5 -98.5t-13.5 -88.5h-796q-1 -14 -2 -24t-1 -19q0 -63 20.5 -117t57 -93.5t87 -62t110.5 -22.5q80 0 152.5 32.5t121.5 94.5l148 -108q-34 -45 -81 -81 t-104 -61.5t-121.5 -39t-131.5 -13.5q-96 0 -179.5 32t-146 93t-98 149.5t-35.5 200.5zM350 645h590q1 62 -16.5 109.5t-51 79t-80.5 47.5t-104 16q-60 0 -112.5 -19t-95.5 -53t-76 -80t-54 -100zM596 1178l213 299h240v-17l-299 -282h-154z" />
<glyph unicode="&#xea;" horiz-adv-x="1171" d="M115 444q0 129 45.5 242.5t126 198t190.5 133.5t238 49q99 0 176.5 -33.5t131.5 -88.5t82 -127t28 -148q0 -51 -5.5 -98.5t-13.5 -88.5h-796q-1 -14 -2 -24t-1 -19q0 -63 20.5 -117t57 -93.5t87 -62t110.5 -22.5q80 0 152.5 32.5t121.5 94.5l148 -108q-34 -45 -81 -81 t-104 -61.5t-121.5 -39t-131.5 -13.5q-96 0 -179.5 32t-146 93t-98 149.5t-35.5 200.5zM350 645h590q1 62 -16.5 109.5t-51 79t-80.5 47.5t-104 16q-60 0 -112.5 -19t-95.5 -53t-76 -80t-54 -100zM487 1171l297 273h111l151 -273h-170l-64 125l-119 -125h-206z" />
<glyph unicode="&#xeb;" horiz-adv-x="1171" d="M115 444q0 129 45.5 242.5t126 198t190.5 133.5t238 49q99 0 176.5 -33.5t131.5 -88.5t82 -127t28 -148q0 -51 -5.5 -98.5t-13.5 -88.5h-796q-1 -14 -2 -24t-1 -19q0 -63 20.5 -117t57 -93.5t87 -62t110.5 -22.5q80 0 152.5 32.5t121.5 94.5l148 -108q-34 -45 -81 -81 t-104 -61.5t-121.5 -39t-131.5 -13.5q-96 0 -179.5 32t-146 93t-98 149.5t-35.5 200.5zM350 645h590q1 62 -16.5 109.5t-51 79t-80.5 47.5t-104 16q-60 0 -112.5 -19t-95.5 -53t-76 -80t-54 -100zM406 1360q0 26 10.5 49.5t28 41t41 28t49.5 10.5q25 0 48 -10.5t40 -28 t27 -41t10 -49.5q0 -27 -10 -51t-27 -42.5t-40 -29t-48 -10.5q-26 0 -49.5 10.5t-41 29t-28 42.5t-10.5 51zM865 1360q0 26 10.5 49.5t28 41t41 28t49.5 10.5q25 0 47.5 -10.5t40 -28t27.5 -41t10 -49.5q0 -27 -10 -51t-27.5 -42.5t-40 -29t-47.5 -10.5q-26 0 -49.5 10.5 t-41 29t-28 42.5t-10.5 51z" />
<glyph unicode="&#xec;" horiz-adv-x="725" d="M125 1460v17h248l184 -299h-145zM143 0l200 864h-186l41 172h387l-200 -864h166l-39 -172h-369z" />
<glyph unicode="&#xed;" horiz-adv-x="725" d="M143 0l200 864h-186l41 172h387l-200 -864h166l-39 -172h-369zM332 1178l213 299h240v-17l-299 -282h-154z" />
<glyph unicode="&#xee;" horiz-adv-x="725" d="M143 0l200 864h-186l41 172h387l-200 -864h166l-39 -172h-369zM198 1171l267 273h112l120 -273h-160l-44 125l-105 -125h-190z" />
<glyph unicode="&#xef;" horiz-adv-x="725" d="M143 0l200 864h-186l41 172h387l-200 -864h166l-39 -172h-369zM201 1360q0 53 38 91t91 38q25 0 48.5 -10.5t40 -27.5t26.5 -41t10 -50q0 -27 -10 -51.5t-26.5 -43t-40 -28.5t-48.5 -10q-53 0 -91 40t-38 93zM517 1360q0 53 38 91t91 38q24 0 48 -10.5t40 -27.5t26.5 -41 t10.5 -50q0 -27 -10.5 -51.5t-26.5 -43t-40 -28.5t-48 -10q-53 0 -91 40t-38 93z" />
<glyph unicode="&#xf0;" horiz-adv-x="1251" d="M72 449q0 86 21.5 165t60.5 147.5t93.5 125t119.5 96.5t139 62t153 22q32 0 59 -3l-69 112l-169 -69l-66 159l143 59l-127 207h244l76 -128l156 64l66 -159l-133 -55l179 -298q36 -60 64.5 -119t46 -134.5t17.5 -150.5q0 -91 -47.5 -209.5t-141.5 -205.5t-208 -124.5 t-198 -37.5q-108 0 -196.5 36.5t-151 100.5t-97 150.5t-34.5 186.5zM281 463q0 -64 16.5 -120.5t50.5 -99t87 -67t127 -24.5q67 0 135.5 30t123.5 86t89.5 136.5t34.5 181.5q0 66 -15 115.5t-49.5 94.5t-93.5 70t-125 25q-80 0 -159.5 -44t-131 -115.5t-71 -143.5 t-19.5 -125z" />
<glyph unicode="&#xf1;" horiz-adv-x="1368" d="M145 0l200 864h-198l41 172h391l-25 -106q71 59 155.5 92t178.5 33q80 0 144.5 -24t105.5 -73t54 -122t-9 -170l-114 -494h147l-39 -172h-350l149 641q28 118 -18 178t-156 60q-78 0 -148 -33.5t-133 -93.5l-173 -752h-203zM500 1251q13 47 37 78.5t54 50.5t64.5 27 t69.5 8q50 0 86.5 -16.5t68 -36t62.5 -35.5t70 -16q28 0 54.5 19t35.5 61l119 -35q-20 -85 -78 -131.5t-139 -46.5q-56 0 -95 15.5t-71 33.5t-60 33.5t-61 15.5q-15 0 -30.5 -2t-30.5 -9.5t-27.5 -23t-19.5 -43.5z" />
<glyph unicode="&#xf2;" d="M75 449q0 86 21.5 165t61 148t95 125t122.5 96t143.5 62t158.5 22q103 0 191 -36.5t152 -100t100.5 -149t36.5 -183.5q0 -87 -22 -167t-61.5 -149t-94.5 -126t-122.5 -97t-144.5 -62t-160 -22q-104 0 -191 36.5t-151 100.5t-99.5 150.5t-35.5 186.5zM284 463 q0 -70 20.5 -127.5t57.5 -98t89 -63t114 -22.5q73 0 142.5 32t122.5 89t85.5 137t32.5 176q0 70 -21.5 126t-59.5 96t-89.5 61.5t-112.5 21.5q-74 0 -142.5 -31.5t-121.5 -88t-85 -135.5t-32 -173zM335 1460v17h248l184 -299h-145z" />
<glyph unicode="&#xf3;" d="M75 449q0 86 21.5 165t61 148t95 125t122.5 96t143.5 62t158.5 22q103 0 191 -36.5t152 -100t100.5 -149t36.5 -183.5q0 -87 -22 -167t-61.5 -149t-94.5 -126t-122.5 -97t-144.5 -62t-160 -22q-104 0 -191 36.5t-151 100.5t-99.5 150.5t-35.5 186.5zM284 463 q0 -70 20.5 -127.5t57.5 -98t89 -63t114 -22.5q73 0 142.5 32t122.5 89t85.5 137t32.5 176q0 70 -21.5 126t-59.5 96t-89.5 61.5t-112.5 21.5q-74 0 -142.5 -31.5t-121.5 -88t-85 -135.5t-32 -173zM590 1178l213 299h240v-17l-299 -282h-154z" />
<glyph unicode="&#xf4;" d="M75 449q0 86 21.5 165t61 148t95 125t122.5 96t143.5 62t158.5 22q103 0 191 -36.5t152 -100t100.5 -149t36.5 -183.5q0 -87 -22 -167t-61.5 -149t-94.5 -126t-122.5 -97t-144.5 -62t-160 -22q-104 0 -191 36.5t-151 100.5t-99.5 150.5t-35.5 186.5zM284 463 q0 -70 20.5 -127.5t57.5 -98t89 -63t114 -22.5q73 0 142.5 32t122.5 89t85.5 137t32.5 176q0 70 -21.5 126t-59.5 96t-89.5 61.5t-112.5 21.5q-74 0 -142.5 -31.5t-121.5 -88t-85 -135.5t-32 -173zM457 1202l297 273h111l151 -273h-170l-64 125l-119 -125h-206z" />
<glyph unicode="&#xf5;" d="M75 449q0 86 21.5 165t61 148t95 125t122.5 96t143.5 62t158.5 22q103 0 191 -36.5t152 -100t100.5 -149t36.5 -183.5q0 -87 -22 -167t-61.5 -149t-94.5 -126t-122.5 -97t-144.5 -62t-160 -22q-104 0 -191 36.5t-151 100.5t-99.5 150.5t-35.5 186.5zM284 463 q0 -70 20.5 -127.5t57.5 -98t89 -63t114 -22.5q73 0 142.5 32t122.5 89t85.5 137t32.5 176q0 70 -21.5 126t-59.5 96t-89.5 61.5t-112.5 21.5q-74 0 -142.5 -31.5t-121.5 -88t-85 -135.5t-32 -173zM400 1282q13 47 37 78.5t54 50.5t64.5 27t69.5 8q50 0 86.5 -16.5t68 -36 t62.5 -35.5t70 -16q28 0 54.5 19t35.5 61l119 -35q-20 -85 -78 -131.5t-139 -46.5q-56 0 -95 15.5t-71 33.5t-60 33.5t-61 15.5q-15 0 -30.5 -2t-30.5 -9.5t-27.5 -23t-19.5 -43.5z" />
<glyph unicode="&#xf6;" d="M75 449q0 86 21.5 165t61 148t95 125t122.5 96t143.5 62t158.5 22q103 0 191 -36.5t152 -100t100.5 -149t36.5 -183.5q0 -87 -22 -167t-61.5 -149t-94.5 -126t-122.5 -97t-144.5 -62t-160 -22q-104 0 -191 36.5t-151 100.5t-99.5 150.5t-35.5 186.5zM284 463 q0 -70 20.5 -127.5t57.5 -98t89 -63t114 -22.5q73 0 142.5 32t122.5 89t85.5 137t32.5 176q0 70 -21.5 126t-59.5 96t-89.5 61.5t-112.5 21.5q-74 0 -142.5 -31.5t-121.5 -88t-85 -135.5t-32 -173zM400 1391q0 26 10.5 49.5t28 41t41 28t49.5 10.5q25 0 48 -10.5t40 -28 t27 -41t10 -49.5q0 -27 -10 -51t-27 -42.5t-40 -29t-48 -10.5q-26 0 -49.5 10.5t-41 29t-28 42.5t-10.5 51zM859 1391q0 26 10.5 49.5t28 41t41 28t49.5 10.5q25 0 47.5 -10.5t40 -28t27.5 -41t10 -49.5q0 -27 -10 -51t-27.5 -42.5t-40 -29t-47.5 -10.5q-26 0 -49.5 10.5 t-41 29t-28 42.5t-10.5 51z" />
<glyph unicode="&#xf7;" horiz-adv-x="1310" d="M225 614l39 172h946l-39 -172h-946zM496 303q0 27 10.5 51t28.5 41.5t42 28t52 10.5q27 0 51 -10.5t41.5 -28t28 -41.5t10.5 -51t-10.5 -51.5t-28 -43t-41.5 -29.5t-51 -11q-28 0 -52 11t-42 29.5t-28.5 43t-10.5 51.5zM650 1089q0 27 10.5 51t28.5 41.5t42 28t52 10.5 q27 0 51 -10.5t41.5 -28t28 -41.5t10.5 -51t-10.5 -51.5t-28 -43t-41.5 -29.5t-51 -11q-28 0 -52 11t-42 29.5t-28.5 43t-10.5 51.5z" />
<glyph unicode="&#xf8;" d="M-55 -30l209 209q-26 39 -52.5 104.5t-26.5 165.5q0 86 21.5 165t61 148t95 125t122.5 96t143.5 62t158.5 22q103 0 170.5 -28t107.5 -56l151 152h219l-258 -259q90 -117 90 -278q0 -87 -22 -167t-61.5 -149t-94.5 -126t-122.5 -97t-144.5 -62t-160 -22q-104 0 -175 29.5 t-116 62.5l-97 -97h-219zM284 463q0 -70 21 -131l514 515q-62 44 -154 44q-74 0 -142.5 -31.5t-121.5 -88t-85 -135.5t-32 -173zM397 204q79 -52 168 -52q73 0 142.5 32t122.5 89t85.5 137t32.5 176q0 70 -29 142z" />
<glyph unicode="&#xf9;" horiz-adv-x="1290" d="M135 864l41 172h340l-123 -526q-44 -186 -3.5 -273t171.5 -87q58 0 102.5 19.5t81 54.5t61.5 74l132 566h-136l41 172h336l-200 -864h155l-39 -172h-348l24 105q-32 -33 -69 -56.5t-75.5 -38t-76 -21.5t-69.5 -7q-68 0 -128.5 19.5t-101.5 57.5q-25 25 -46.5 58.5 t-33.5 80.5t-11 109t20 144l95 413h-140zM345 1460v17h248l184 -299h-145z" />
<glyph unicode="&#xfa;" horiz-adv-x="1290" d="M135 864l41 172h340l-123 -526q-44 -186 -3.5 -273t171.5 -87q58 0 102.5 19.5t81 54.5t61.5 74l132 566h-136l41 172h336l-200 -864h155l-39 -172h-348l24 105q-32 -33 -69 -56.5t-75.5 -38t-76 -21.5t-69.5 -7q-68 0 -128.5 19.5t-101.5 57.5q-25 25 -46.5 58.5 t-33.5 80.5t-11 109t20 144l95 413h-140zM584 1178l213 299h240v-17l-299 -282h-154z" />
<glyph unicode="&#xfb;" horiz-adv-x="1290" d="M135 864l41 172h340l-123 -526q-44 -186 -3.5 -273t171.5 -87q58 0 102.5 19.5t81 54.5t61.5 74l132 566h-136l41 172h336l-200 -864h155l-39 -172h-348l24 105q-32 -33 -69 -56.5t-75.5 -38t-76 -21.5t-69.5 -7q-68 0 -128.5 19.5t-101.5 57.5q-25 25 -46.5 58.5 t-33.5 80.5t-11 109t20 144l95 413h-140zM454 1171l297 273h111l151 -273h-170l-64 125l-119 -125h-206z" />
<glyph unicode="&#xfc;" horiz-adv-x="1290" d="M135 864l41 172h340l-123 -526q-44 -186 -3.5 -273t171.5 -87q58 0 102.5 19.5t81 54.5t61.5 74l132 566h-136l41 172h336l-200 -864h155l-39 -172h-348l24 105q-32 -33 -69 -56.5t-75.5 -38t-76 -21.5t-69.5 -7q-68 0 -128.5 19.5t-101.5 57.5q-25 25 -46.5 58.5 t-33.5 80.5t-11 109t20 144l95 413h-140zM373 1360q0 26 10.5 49.5t28 41t41 28t49.5 10.5q25 0 48 -10.5t40 -28t27 -41t10 -49.5q0 -27 -10 -51t-27 -42.5t-40 -29t-48 -10.5q-26 0 -49.5 10.5t-41 29t-28 42.5t-10.5 51zM832 1360q0 26 10.5 49.5t28 41t41 28t49.5 10.5 q25 0 47.5 -10.5t40 -28t27.5 -41t10 -49.5q0 -27 -10 -51t-27.5 -42.5t-40 -29t-47.5 -10.5q-26 0 -49.5 10.5t-41 29t-28 42.5t-10.5 51z" />
<glyph unicode="&#xfd;" horiz-adv-x="1165" d="M-10 -471l43 172h101l185 290l-114 873h-98l41 172h379l-41 -172h-79l61 -639l408 639h-85l41 172h379l-41 -172h-87l-741 -1163h101l-43 -172h-410zM485 1209l213 299h240v-17l-299 -282h-154z" />
<glyph unicode="&#xfe;" horiz-adv-x="1255" d="M-193 -471l39 172h154l388 1683h-194l41 172h393l-135 -585q134 92 279 92q85 0 159 -33t128.5 -90t86 -134.5t31.5 -166.5q0 -145 -51 -266t-138.5 -208t-204 -135t-247.5 -48q-77 0 -143.5 23t-108.5 59l-84 -363h137l-38 -172h-492zM324 236q25 -33 80 -57.5 t146 -24.5q77 0 152 31.5t134.5 91t96.5 145.5t37 196q0 64 -18 114.5t-50.5 85.5t-77.5 54t-100 19q-70 0 -142 -28.5t-132 -78.5z" />
<glyph unicode="&#xff;" horiz-adv-x="1165" d="M-10 -471l43 172h101l185 290l-114 873h-98l41 172h379l-41 -172h-79l61 -639l408 639h-85l41 172h379l-41 -172h-87l-741 -1163h101l-43 -172h-410zM342 1391q0 26 10.5 49.5t28 41t41 28t49.5 10.5q25 0 48 -10.5t40 -28t27 -41t10 -49.5q0 -27 -10 -51t-27 -42.5 t-40 -29t-48 -10.5q-26 0 -49.5 10.5t-41 29t-28 42.5t-10.5 51zM801 1391q0 26 10.5 49.5t28 41t41 28t49.5 10.5q25 0 47.5 -10.5t40 -28t27.5 -41t10 -49.5q0 -27 -10 -51t-27.5 -42.5t-40 -29t-47.5 -10.5q-26 0 -49.5 10.5t-41 29t-28 42.5t-10.5 51z" />
<glyph unicode="&#x152;" horiz-adv-x="2066" d="M76 639q0 182 73.5 342t198.5 278.5t289 187.5t344 69h1184l-99 -433h-204l57 260h-535l-110 -485h455l-41 -172h-455l-119 -514h535l61 260h209l-100 -432h-1131q-143 0 -257 52t-192.5 139.5t-120.5 203t-42 244.5zM289 655q0 -100 27.5 -188t81 -153.5t131 -103.5 t178.5 -38h211l270 1171h-232q-122 0 -241 -53t-214 -146t-153.5 -219t-58.5 -270z" />
<glyph unicode="&#x153;" horiz-adv-x="1995" d="M76 449q0 129 48 241.5t130 196.5t191.5 132t232.5 48q133 0 238.5 -59.5t166.5 -157.5q82 100 200 158.5t259 58.5q98 0 176 -34t132.5 -89t82 -127t27.5 -147q0 -52 -5 -99t-13 -88h-795q-2 -4 -2 -9t-2 -9v-25q0 -63 20.5 -116.5t57 -93.5t87 -62.5t109.5 -22.5 q80 0 152.5 33t122.5 94q37 -28 73.5 -53.5t73.5 -54.5q-67 -90 -185 -142.5t-253 -52.5q-129 0 -232.5 56.5t-162.5 160.5q-84 -98 -201 -154.5t-252 -56.5q-104 0 -191.5 37t-151 100.5t-99 149.5t-35.5 187zM285 463q0 -141 77.5 -226t202.5 -85q74 0 142.5 31.5t123 89 t86 137t31.5 176.5q0 69 -21.5 125.5t-59.5 96.5t-89 61.5t-112 21.5q-74 0 -142.5 -32t-122 -88t-85 -135t-31.5 -173zM1178 645h589q2 62 -16 109t-51 78.5t-80 48t-104 16.5q-119 0 -208 -71.5t-130 -180.5z" />
<glyph unicode="&#x178;" horiz-adv-x="1323" d="M175 1343l39 173h491l-39 -173h-122l175 -473l411 473h-122l39 173h492l-39 -173h-123l-586 -656l-120 -515h141l-39 -172h-492l39 172h141l120 519l-259 652h-147zM554 1840q0 26 10.5 49.5t28 41t41 28t49.5 10.5q25 0 48 -10.5t40 -28t27 -41t10 -49.5q0 -27 -10 -51 t-27 -42.5t-40 -29t-48 -10.5q-26 0 -49.5 10.5t-41 29t-28 42.5t-10.5 51zM1013 1840q0 26 10.5 49.5t28 41t41 28t49.5 10.5q25 0 47.5 -10.5t40 -28t27.5 -41t10 -49.5q0 -27 -10 -51t-27.5 -42.5t-40 -29t-47.5 -10.5q-26 0 -49.5 10.5t-41 29t-28 42.5t-10.5 51z" />
<glyph unicode="&#x2c6;" horiz-adv-x="860" d="M172 1171l297 273h111l151 -273h-170l-64 125l-119 -125h-206z" />
<glyph unicode="&#x2dc;" horiz-adv-x="1000" d="M150 1251q13 47 37 78.5t54 50.5t64.5 27t69.5 8q50 0 86.5 -16.5t68 -36t62.5 -35.5t70 -16q28 0 54.5 19t35.5 61l119 -35q-20 -85 -78 -131.5t-139 -46.5q-56 0 -95 15.5t-71 33.5t-60 33.5t-61 15.5q-15 0 -30.5 -2t-30.5 -9.5t-27.5 -23t-19.5 -43.5z" />
<glyph unicode="&#x2000;" horiz-adv-x="1004" />
<glyph unicode="&#x2001;" horiz-adv-x="2009" />
<glyph unicode="&#x2002;" horiz-adv-x="1004" />
<glyph unicode="&#x2003;" horiz-adv-x="2009" />
<glyph unicode="&#x2004;" horiz-adv-x="669" />
<glyph unicode="&#x2005;" horiz-adv-x="502" />
<glyph unicode="&#x2006;" horiz-adv-x="334" />
<glyph unicode="&#x2007;" horiz-adv-x="334" />
<glyph unicode="&#x2008;" horiz-adv-x="251" />
<glyph unicode="&#x2009;" horiz-adv-x="401" />
<glyph unicode="&#x200a;" horiz-adv-x="111" />
<glyph unicode="&#x2010;" horiz-adv-x="856" d="M137 496l40 172h571l-40 -172h-571z" />
<glyph unicode="&#x2011;" horiz-adv-x="856" d="M137 496l40 172h571l-40 -172h-571z" />
<glyph unicode="&#x2012;" horiz-adv-x="856" d="M137 496l40 172h571l-40 -172h-571z" />
<glyph unicode="&#x2013;" horiz-adv-x="1024" d="M0 485l40 162h1024l-40 -162h-1024z" />
<glyph unicode="&#x2014;" horiz-adv-x="2048" d="M0 485l40 162h2048l-40 -162h-2048z" />
<glyph unicode="&#x2018;" horiz-adv-x="487" d="M178 1059l319 502l127 -64l-264 -518z" />
<glyph unicode="&#x2019;" horiz-adv-x="509" d="M175 1044l264 519l185 -80l-324 -504z" />
<glyph unicode="&#x201a;" horiz-adv-x="637" d="M-49 -254l264 520l186 -80l-323 -503z" />
<glyph unicode="&#x201c;" horiz-adv-x="918" d="M178 1059l321 504l129 -66l-268 -516zM608 1059l319 502l127 -64l-264 -518z" />
<glyph unicode="&#x201d;" horiz-adv-x="918" d="M157 1044l264 519l185 -80l-324 -504zM585 1044l264 517l185 -78l-324 -504z" />
<glyph unicode="&#x201e;" horiz-adv-x="920" d="M-49 -254l264 520l186 -80l-323 -503zM381 -254l264 520l186 -80l-323 -503z" />
<glyph unicode="&#x2022;" horiz-adv-x="989" d="M219 545q0 54 20 101t55 82t82 55t101 20t101 -20t82.5 -54.5t56 -82t20.5 -101.5q0 -55 -20.5 -102t-56 -81.5t-82.5 -54.5t-101 -20t-101 20t-82 54.5t-55 81.5t-20 102z" />
<glyph unicode="&#x2026;" horiz-adv-x="1899" d="M246 119q0 27 10.5 51t28.5 41.5t42 28t52 10.5q27 0 51 -10.5t41.5 -28t28 -41.5t10.5 -51t-10.5 -51.5t-28 -43t-41.5 -29.5t-51 -11q-28 0 -52 11t-42 29.5t-28.5 43t-10.5 51.5zM879 119q0 27 10.5 51t28.5 41.5t42 28t52 10.5q27 0 51 -10.5t41.5 -28t28 -41.5 t10.5 -51t-10.5 -51.5t-28 -43t-41.5 -29.5t-51 -11q-28 0 -52 11t-42 29.5t-28.5 43t-10.5 51.5zM1512 119q0 27 10.5 51t28.5 41.5t42 28t52 10.5q27 0 51 -10.5t41.5 -28t28 -41.5t10.5 -51t-10.5 -51.5t-28 -43t-41.5 -29.5t-51 -11q-28 0 -52 11t-42 29.5t-28.5 43 t-10.5 51.5z" />
<glyph unicode="&#x202f;" horiz-adv-x="401" />
<glyph unicode="&#x2039;" horiz-adv-x="557" d="M70 567l319 391h197l-322 -413l131 -373h-186z" />
<glyph unicode="&#x203a;" horiz-adv-x="539" d="M29 172l321 414l-131 372h187l139 -395l-320 -391h-196z" />
<glyph unicode="&#x205f;" horiz-adv-x="502" />
<glyph unicode="&#x20ac;" horiz-adv-x="1503" d="M217 596q0 184 76 356t203 303t296 210t353 79q94 0 167.5 -17.5t132 -50t103.5 -78.5t82 -104h96l-40 -178h-216q-40 115 -126.5 178.5t-241.5 63.5q-96 0 -185.5 -30t-167 -83t-140 -125.5t-105.5 -158.5h618l-151 -187h-531q-4 -31 -8 -60.5t-4 -60.5h625l-152 -186 h-448q39 -131 132 -217t240 -86q86 0 161 20.5t140.5 62.5t126 103.5t119.5 143.5l160 -82q-68 -99 -150 -178.5t-176 -137t-200.5 -89.5t-223.5 -32q-133 0 -238.5 49.5t-178 133.5t-110.5 196.5t-38 241.5z" />
<glyph unicode="&#x2122;" horiz-adv-x="1706" d="M63 1384l46 195h655l-45 -195h-133l16 74h-139l-117 -506h80l-25 -112h-297l25 112h82l117 506h-113l-16 -74h-136zM649 840l25 112h92l117 506h-92l28 121h295l57 -469l285 469h287l-29 -121h-94l-117 -506h94l-24 -112h-297l24 112h70l90 385l-243 -385h-164l-64 385 l-90 -385h72l-25 -112h-297z" />
<glyph unicode="&#x25fc;" horiz-adv-x="1035" d="M0 0v1035h1035v-1035h-1035z" />
<glyph unicode="&#xfb01;" horiz-adv-x="1534" d="M35 -471l305 1335h-213l41 172h211l43 183q45 192 156.5 275t269.5 83q96 0 162.5 -20.5t101.5 -40.5l-102 -154q-27 16 -72 29.5t-98 13.5q-80 0 -136.5 -44t-80.5 -153l-41 -172h282l-41 -172h-280l-305 -1335h-203zM954 0l199 864h-184l41 172h387l-201 -864h166 l-39 -172h-369zM1200 1401q0 53 39 92t94 39q27 0 50.5 -10.5t42 -28.5t28.5 -42t10 -50q0 -27 -10 -51.5t-28.5 -43t-42 -29.5t-50.5 -11q-55 0 -94 41t-39 94z" />
<glyph unicode="&#xfb02;" horiz-adv-x="1460" d="M35 -471l305 1335h-213l41 172h211l43 183q45 192 155.5 275t270.5 83q82 0 154.5 -23.5t127.5 -62.5l15 65h203l-320 -1384h172l-39 -172h-375l301 1311q-38 41 -100.5 67.5t-128.5 26.5q-94 0 -152.5 -44t-82.5 -153l-41 -172h282l-41 -172h-280l-305 -1335h-203z" />
</font>
</defs>
</svg>
